<?xml version="1.0" encoding="utf-8" standalone="no"?>
<!DOCTYPE svg PUBLIC "-//W3C//DTD SVG 1.1//EN"
  "http://www.w3.org/Graphics/SVG/1.1/DTD/svg11.dtd">
<svg xmlns:xlink="http://www.w3.org/1999/xlink" width="576pt" height="324pt" viewBox="0 0 576 324" xmlns="http://www.w3.org/2000/svg" version="1.1">
 <metadata>
  <rdf:RDF xmlns:dc="http://purl.org/dc/elements/1.1/" xmlns:cc="http://creativecommons.org/ns#" xmlns:rdf="http://www.w3.org/1999/02/22-rdf-syntax-ns#">
   <cc:Work>
    <dc:type rdf:resource="http://purl.org/dc/dcmitype/StillImage"/>
    <dc:date>2025-11-24T12:07:58.380290</dc:date>
    <dc:format>image/svg+xml</dc:format>
    <dc:creator>
     <cc:Agent>
      <dc:title>Matplotlib v3.10.8, https://matplotlib.org/</dc:title>
     </cc:Agent>
    </dc:creator>
   </cc:Work>
  </rdf:RDF>
 </metadata>
 <defs>
  <style type="text/css">*{stroke-linejoin: round; stroke-linecap: butt}</style>
 </defs>
 <g id="figure_1">
  <g id="patch_1">
   <path d="M 0 324 
L 576 324 
L 576 0 
L 0 0 
z
" style="fill: #ffffff"/>
  </g>
  <g id="axes_1">
   <g id="patch_2">
    <path d="M 72 288.36 
L 518.4 288.36 
L 518.4 38.88 
L 72 38.88 
z
" style="fill: #ffffff"/>
   </g>
   <g id="matplotlib.axis_1">
    <g id="xtick_1">
     <g id="line2d_1">
      <path d="M 72 288.36 
L 72 38.88 
" clip-path="url(#pc47fa266eb)" style="fill: none; stroke: #b0b0b0; stroke-opacity: 0.6; stroke-width: 0.8; stroke-linecap: square"/>
     </g>
     <g id="line2d_2">
      <defs>
       <path id="m7a20638154" d="M 0 0 
L 0 3.5 
" style="stroke: #000000; stroke-width: 0.8"/>
      </defs>
      <g>
       <use xlink:href="#m7a20638154" x="72" y="288.36" style="stroke: #000000; stroke-width: 0.8"/>
      </g>
     </g>
     <g id="text_1">
      <!-- $\mathdefault{10^{5}}$ -->
      <g transform="translate(63.2 302.958438) scale(0.1 -0.1)">
       <defs>
        <path id="DejaVuSans-31" d="M 794 531 
L 1825 531 
L 1825 4091 
L 703 3866 
L 703 4441 
L 1819 4666 
L 2450 4666 
L 2450 531 
L 3481 531 
L 3481 0 
L 794 0 
L 794 531 
z
" transform="scale(0.015625)"/>
        <path id="DejaVuSans-30" d="M 2034 4250 
Q 1547 4250 1301 3770 
Q 1056 3291 1056 2328 
Q 1056 1369 1301 889 
Q 1547 409 2034 409 
Q 2525 409 2770 889 
Q 3016 1369 3016 2328 
Q 3016 3291 2770 3770 
Q 2525 4250 2034 4250 
z
M 2034 4750 
Q 2819 4750 3233 4129 
Q 3647 3509 3647 2328 
Q 3647 1150 3233 529 
Q 2819 -91 2034 -91 
Q 1250 -91 836 529 
Q 422 1150 422 2328 
Q 422 3509 836 4129 
Q 1250 4750 2034 4750 
z
" transform="scale(0.015625)"/>
        <path id="DejaVuSans-35" d="M 691 4666 
L 3169 4666 
L 3169 4134 
L 1269 4134 
L 1269 2991 
Q 1406 3038 1543 3061 
Q 1681 3084 1819 3084 
Q 2600 3084 3056 2656 
Q 3513 2228 3513 1497 
Q 3513 744 3044 326 
Q 2575 -91 1722 -91 
Q 1428 -91 1123 -41 
Q 819 9 494 109 
L 494 744 
Q 775 591 1075 516 
Q 1375 441 1709 441 
Q 2250 441 2565 725 
Q 2881 1009 2881 1497 
Q 2881 1984 2565 2268 
Q 2250 2553 1709 2553 
Q 1456 2553 1204 2497 
Q 953 2441 691 2322 
L 691 4666 
z
" transform="scale(0.015625)"/>
       </defs>
       <use xlink:href="#DejaVuSans-31" transform="translate(0 0.684375)"/>
       <use xlink:href="#DejaVuSans-30" transform="translate(63.623047 0.684375)"/>
       <use xlink:href="#DejaVuSans-35" transform="translate(128.203125 38.965625) scale(0.7)"/>
      </g>
     </g>
    </g>
    <g id="xtick_2">
     <g id="line2d_3">
      <path d="M 146.4 288.36 
L 146.4 38.88 
" clip-path="url(#pc47fa266eb)" style="fill: none; stroke: #b0b0b0; stroke-opacity: 0.6; stroke-width: 0.8; stroke-linecap: square"/>
     </g>
     <g id="line2d_4">
      <g>
       <use xlink:href="#m7a20638154" x="146.4" y="288.36" style="stroke: #000000; stroke-width: 0.8"/>
      </g>
     </g>
     <g id="text_2">
      <!-- $\mathdefault{10^{6}}$ -->
      <g transform="translate(137.6 302.958438) scale(0.1 -0.1)">
       <defs>
        <path id="DejaVuSans-36" d="M 2113 2584 
Q 1688 2584 1439 2293 
Q 1191 2003 1191 1497 
Q 1191 994 1439 701 
Q 1688 409 2113 409 
Q 2538 409 2786 701 
Q 3034 994 3034 1497 
Q 3034 2003 2786 2293 
Q 2538 2584 2113 2584 
z
M 3366 4563 
L 3366 3988 
Q 3128 4100 2886 4159 
Q 2644 4219 2406 4219 
Q 1781 4219 1451 3797 
Q 1122 3375 1075 2522 
Q 1259 2794 1537 2939 
Q 1816 3084 2150 3084 
Q 2853 3084 3261 2657 
Q 3669 2231 3669 1497 
Q 3669 778 3244 343 
Q 2819 -91 2113 -91 
Q 1303 -91 875 529 
Q 447 1150 447 2328 
Q 447 3434 972 4092 
Q 1497 4750 2381 4750 
Q 2619 4750 2861 4703 
Q 3103 4656 3366 4563 
z
" transform="scale(0.015625)"/>
       </defs>
       <use xlink:href="#DejaVuSans-31" transform="translate(0 0.765625)"/>
       <use xlink:href="#DejaVuSans-30" transform="translate(63.623047 0.765625)"/>
       <use xlink:href="#DejaVuSans-36" transform="translate(128.203125 39.046875) scale(0.7)"/>
      </g>
     </g>
    </g>
    <g id="xtick_3">
     <g id="line2d_5">
      <path d="M 220.8 288.36 
L 220.8 38.88 
" clip-path="url(#pc47fa266eb)" style="fill: none; stroke: #b0b0b0; stroke-opacity: 0.6; stroke-width: 0.8; stroke-linecap: square"/>
     </g>
     <g id="line2d_6">
      <g>
       <use xlink:href="#m7a20638154" x="220.8" y="288.36" style="stroke: #000000; stroke-width: 0.8"/>
      </g>
     </g>
     <g id="text_3">
      <!-- $\mathdefault{10^{7}}$ -->
      <g transform="translate(212 302.958438) scale(0.1 -0.1)">
       <defs>
        <path id="DejaVuSans-37" d="M 525 4666 
L 3525 4666 
L 3525 4397 
L 1831 0 
L 1172 0 
L 2766 4134 
L 525 4134 
L 525 4666 
z
" transform="scale(0.015625)"/>
       </defs>
       <use xlink:href="#DejaVuSans-31" transform="translate(0 0.684375)"/>
       <use xlink:href="#DejaVuSans-30" transform="translate(63.623047 0.684375)"/>
       <use xlink:href="#DejaVuSans-37" transform="translate(128.203125 38.965625) scale(0.7)"/>
      </g>
     </g>
    </g>
    <g id="xtick_4">
     <g id="line2d_7">
      <path d="M 295.2 288.36 
L 295.2 38.88 
" clip-path="url(#pc47fa266eb)" style="fill: none; stroke: #b0b0b0; stroke-opacity: 0.6; stroke-width: 0.8; stroke-linecap: square"/>
     </g>
     <g id="line2d_8">
      <g>
       <use xlink:href="#m7a20638154" x="295.2" y="288.36" style="stroke: #000000; stroke-width: 0.8"/>
      </g>
     </g>
     <g id="text_4">
      <!-- $\mathdefault{10^{8}}$ -->
      <g transform="translate(286.4 302.958438) scale(0.1 -0.1)">
       <defs>
        <path id="DejaVuSans-38" d="M 2034 2216 
Q 1584 2216 1326 1975 
Q 1069 1734 1069 1313 
Q 1069 891 1326 650 
Q 1584 409 2034 409 
Q 2484 409 2743 651 
Q 3003 894 3003 1313 
Q 3003 1734 2745 1975 
Q 2488 2216 2034 2216 
z
M 1403 2484 
Q 997 2584 770 2862 
Q 544 3141 544 3541 
Q 544 4100 942 4425 
Q 1341 4750 2034 4750 
Q 2731 4750 3128 4425 
Q 3525 4100 3525 3541 
Q 3525 3141 3298 2862 
Q 3072 2584 2669 2484 
Q 3125 2378 3379 2068 
Q 3634 1759 3634 1313 
Q 3634 634 3220 271 
Q 2806 -91 2034 -91 
Q 1263 -91 848 271 
Q 434 634 434 1313 
Q 434 1759 690 2068 
Q 947 2378 1403 2484 
z
M 1172 3481 
Q 1172 3119 1398 2916 
Q 1625 2713 2034 2713 
Q 2441 2713 2670 2916 
Q 2900 3119 2900 3481 
Q 2900 3844 2670 4047 
Q 2441 4250 2034 4250 
Q 1625 4250 1398 4047 
Q 1172 3844 1172 3481 
z
" transform="scale(0.015625)"/>
       </defs>
       <use xlink:href="#DejaVuSans-31" transform="translate(0 0.765625)"/>
       <use xlink:href="#DejaVuSans-30" transform="translate(63.623047 0.765625)"/>
       <use xlink:href="#DejaVuSans-38" transform="translate(128.203125 39.046875) scale(0.7)"/>
      </g>
     </g>
    </g>
    <g id="xtick_5">
     <g id="line2d_9">
      <path d="M 369.6 288.36 
L 369.6 38.88 
" clip-path="url(#pc47fa266eb)" style="fill: none; stroke: #b0b0b0; stroke-opacity: 0.6; stroke-width: 0.8; stroke-linecap: square"/>
     </g>
     <g id="line2d_10">
      <g>
       <use xlink:href="#m7a20638154" x="369.6" y="288.36" style="stroke: #000000; stroke-width: 0.8"/>
      </g>
     </g>
     <g id="text_5">
      <!-- $\mathdefault{10^{9}}$ -->
      <g transform="translate(360.8 302.958438) scale(0.1 -0.1)">
       <defs>
        <path id="DejaVuSans-39" d="M 703 97 
L 703 672 
Q 941 559 1184 500 
Q 1428 441 1663 441 
Q 2288 441 2617 861 
Q 2947 1281 2994 2138 
Q 2813 1869 2534 1725 
Q 2256 1581 1919 1581 
Q 1219 1581 811 2004 
Q 403 2428 403 3163 
Q 403 3881 828 4315 
Q 1253 4750 1959 4750 
Q 2769 4750 3195 4129 
Q 3622 3509 3622 2328 
Q 3622 1225 3098 567 
Q 2575 -91 1691 -91 
Q 1453 -91 1209 -44 
Q 966 3 703 97 
z
M 1959 2075 
Q 2384 2075 2632 2365 
Q 2881 2656 2881 3163 
Q 2881 3666 2632 3958 
Q 2384 4250 1959 4250 
Q 1534 4250 1286 3958 
Q 1038 3666 1038 3163 
Q 1038 2656 1286 2365 
Q 1534 2075 1959 2075 
z
" transform="scale(0.015625)"/>
       </defs>
       <use xlink:href="#DejaVuSans-31" transform="translate(0 0.765625)"/>
       <use xlink:href="#DejaVuSans-30" transform="translate(63.623047 0.765625)"/>
       <use xlink:href="#DejaVuSans-39" transform="translate(128.203125 39.046875) scale(0.7)"/>
      </g>
     </g>
    </g>
    <g id="xtick_6">
     <g id="line2d_11">
      <path d="M 444 288.36 
L 444 38.88 
" clip-path="url(#pc47fa266eb)" style="fill: none; stroke: #b0b0b0; stroke-opacity: 0.6; stroke-width: 0.8; stroke-linecap: square"/>
     </g>
     <g id="line2d_12">
      <g>
       <use xlink:href="#m7a20638154" x="444" y="288.36" style="stroke: #000000; stroke-width: 0.8"/>
      </g>
     </g>
     <g id="text_6">
      <!-- $\mathdefault{10^{10}}$ -->
      <g transform="translate(432.95 302.958438) scale(0.1 -0.1)">
       <use xlink:href="#DejaVuSans-31" transform="translate(0 0.765625)"/>
       <use xlink:href="#DejaVuSans-30" transform="translate(63.623047 0.765625)"/>
       <use xlink:href="#DejaVuSans-31" transform="translate(128.203125 39.046875) scale(0.7)"/>
       <use xlink:href="#DejaVuSans-30" transform="translate(172.739258 39.046875) scale(0.7)"/>
      </g>
     </g>
    </g>
    <g id="xtick_7">
     <g id="line2d_13">
      <path d="M 518.4 288.36 
L 518.4 38.88 
" clip-path="url(#pc47fa266eb)" style="fill: none; stroke: #b0b0b0; stroke-opacity: 0.6; stroke-width: 0.8; stroke-linecap: square"/>
     </g>
     <g id="line2d_14">
      <g>
       <use xlink:href="#m7a20638154" x="518.4" y="288.36" style="stroke: #000000; stroke-width: 0.8"/>
      </g>
     </g>
     <g id="text_7">
      <!-- $\mathdefault{10^{11}}$ -->
      <g transform="translate(507.35 302.958438) scale(0.1 -0.1)">
       <use xlink:href="#DejaVuSans-31" transform="translate(0 0.684375)"/>
       <use xlink:href="#DejaVuSans-30" transform="translate(63.623047 0.684375)"/>
       <use xlink:href="#DejaVuSans-31" transform="translate(128.203125 38.965625) scale(0.7)"/>
       <use xlink:href="#DejaVuSans-31" transform="translate(172.739258 38.965625) scale(0.7)"/>
      </g>
     </g>
    </g>
    <g id="xtick_8">
     <g id="line2d_15">
      <path d="M 94.396632 288.36 
L 94.396632 38.88 
" clip-path="url(#pc47fa266eb)" style="fill: none; stroke: #b0b0b0; stroke-opacity: 0.6; stroke-width: 0.8; stroke-linecap: square"/>
     </g>
     <g id="line2d_16">
      <defs>
       <path id="mc9874730bf" d="M 0 0 
L 0 2 
" style="stroke: #000000; stroke-width: 0.6"/>
      </defs>
      <g>
       <use xlink:href="#mc9874730bf" x="94.396632" y="288.36" style="stroke: #000000; stroke-width: 0.6"/>
      </g>
     </g>
    </g>
    <g id="xtick_9">
     <g id="line2d_17">
      <path d="M 107.497821 288.36 
L 107.497821 38.88 
" clip-path="url(#pc47fa266eb)" style="fill: none; stroke: #b0b0b0; stroke-opacity: 0.6; stroke-width: 0.8; stroke-linecap: square"/>
     </g>
     <g id="line2d_18">
      <g>
       <use xlink:href="#mc9874730bf" x="107.497821" y="288.36" style="stroke: #000000; stroke-width: 0.6"/>
      </g>
     </g>
    </g>
    <g id="xtick_10">
     <g id="line2d_19">
      <path d="M 116.793263 288.36 
L 116.793263 38.88 
" clip-path="url(#pc47fa266eb)" style="fill: none; stroke: #b0b0b0; stroke-opacity: 0.6; stroke-width: 0.8; stroke-linecap: square"/>
     </g>
     <g id="line2d_20">
      <g>
       <use xlink:href="#mc9874730bf" x="116.793263" y="288.36" style="stroke: #000000; stroke-width: 0.6"/>
      </g>
     </g>
    </g>
    <g id="xtick_11">
     <g id="line2d_21">
      <path d="M 124.003368 288.36 
L 124.003368 38.88 
" clip-path="url(#pc47fa266eb)" style="fill: none; stroke: #b0b0b0; stroke-opacity: 0.6; stroke-width: 0.8; stroke-linecap: square"/>
     </g>
     <g id="line2d_22">
      <g>
       <use xlink:href="#mc9874730bf" x="124.003368" y="288.36" style="stroke: #000000; stroke-width: 0.6"/>
      </g>
     </g>
    </g>
    <g id="xtick_12">
     <g id="line2d_23">
      <path d="M 129.894453 288.36 
L 129.894453 38.88 
" clip-path="url(#pc47fa266eb)" style="fill: none; stroke: #b0b0b0; stroke-opacity: 0.6; stroke-width: 0.8; stroke-linecap: square"/>
     </g>
     <g id="line2d_24">
      <g>
       <use xlink:href="#mc9874730bf" x="129.894453" y="288.36" style="stroke: #000000; stroke-width: 0.6"/>
      </g>
     </g>
    </g>
    <g id="xtick_13">
     <g id="line2d_25">
      <path d="M 134.875294 288.36 
L 134.875294 38.88 
" clip-path="url(#pc47fa266eb)" style="fill: none; stroke: #b0b0b0; stroke-opacity: 0.6; stroke-width: 0.8; stroke-linecap: square"/>
     </g>
     <g id="line2d_26">
      <g>
       <use xlink:href="#mc9874730bf" x="134.875294" y="288.36" style="stroke: #000000; stroke-width: 0.6"/>
      </g>
     </g>
    </g>
    <g id="xtick_14">
     <g id="line2d_27">
      <path d="M 139.189895 288.36 
L 139.189895 38.88 
" clip-path="url(#pc47fa266eb)" style="fill: none; stroke: #b0b0b0; stroke-opacity: 0.6; stroke-width: 0.8; stroke-linecap: square"/>
     </g>
     <g id="line2d_28">
      <g>
       <use xlink:href="#mc9874730bf" x="139.189895" y="288.36" style="stroke: #000000; stroke-width: 0.6"/>
      </g>
     </g>
    </g>
    <g id="xtick_15">
     <g id="line2d_29">
      <path d="M 142.995643 288.36 
L 142.995643 38.88 
" clip-path="url(#pc47fa266eb)" style="fill: none; stroke: #b0b0b0; stroke-opacity: 0.6; stroke-width: 0.8; stroke-linecap: square"/>
     </g>
     <g id="line2d_30">
      <g>
       <use xlink:href="#mc9874730bf" x="142.995643" y="288.36" style="stroke: #000000; stroke-width: 0.6"/>
      </g>
     </g>
    </g>
    <g id="xtick_16">
     <g id="line2d_31">
      <path d="M 168.796632 288.36 
L 168.796632 38.88 
" clip-path="url(#pc47fa266eb)" style="fill: none; stroke: #b0b0b0; stroke-opacity: 0.6; stroke-width: 0.8; stroke-linecap: square"/>
     </g>
     <g id="line2d_32">
      <g>
       <use xlink:href="#mc9874730bf" x="168.796632" y="288.36" style="stroke: #000000; stroke-width: 0.6"/>
      </g>
     </g>
    </g>
    <g id="xtick_17">
     <g id="line2d_33">
      <path d="M 181.897821 288.36 
L 181.897821 38.88 
" clip-path="url(#pc47fa266eb)" style="fill: none; stroke: #b0b0b0; stroke-opacity: 0.6; stroke-width: 0.8; stroke-linecap: square"/>
     </g>
     <g id="line2d_34">
      <g>
       <use xlink:href="#mc9874730bf" x="181.897821" y="288.36" style="stroke: #000000; stroke-width: 0.6"/>
      </g>
     </g>
    </g>
    <g id="xtick_18">
     <g id="line2d_35">
      <path d="M 191.193263 288.36 
L 191.193263 38.88 
" clip-path="url(#pc47fa266eb)" style="fill: none; stroke: #b0b0b0; stroke-opacity: 0.6; stroke-width: 0.8; stroke-linecap: square"/>
     </g>
     <g id="line2d_36">
      <g>
       <use xlink:href="#mc9874730bf" x="191.193263" y="288.36" style="stroke: #000000; stroke-width: 0.6"/>
      </g>
     </g>
    </g>
    <g id="xtick_19">
     <g id="line2d_37">
      <path d="M 198.403368 288.36 
L 198.403368 38.88 
" clip-path="url(#pc47fa266eb)" style="fill: none; stroke: #b0b0b0; stroke-opacity: 0.6; stroke-width: 0.8; stroke-linecap: square"/>
     </g>
     <g id="line2d_38">
      <g>
       <use xlink:href="#mc9874730bf" x="198.403368" y="288.36" style="stroke: #000000; stroke-width: 0.6"/>
      </g>
     </g>
    </g>
    <g id="xtick_20">
     <g id="line2d_39">
      <path d="M 204.294453 288.36 
L 204.294453 38.88 
" clip-path="url(#pc47fa266eb)" style="fill: none; stroke: #b0b0b0; stroke-opacity: 0.6; stroke-width: 0.8; stroke-linecap: square"/>
     </g>
     <g id="line2d_40">
      <g>
       <use xlink:href="#mc9874730bf" x="204.294453" y="288.36" style="stroke: #000000; stroke-width: 0.6"/>
      </g>
     </g>
    </g>
    <g id="xtick_21">
     <g id="line2d_41">
      <path d="M 209.275294 288.36 
L 209.275294 38.88 
" clip-path="url(#pc47fa266eb)" style="fill: none; stroke: #b0b0b0; stroke-opacity: 0.6; stroke-width: 0.8; stroke-linecap: square"/>
     </g>
     <g id="line2d_42">
      <g>
       <use xlink:href="#mc9874730bf" x="209.275294" y="288.36" style="stroke: #000000; stroke-width: 0.6"/>
      </g>
     </g>
    </g>
    <g id="xtick_22">
     <g id="line2d_43">
      <path d="M 213.589895 288.36 
L 213.589895 38.88 
" clip-path="url(#pc47fa266eb)" style="fill: none; stroke: #b0b0b0; stroke-opacity: 0.6; stroke-width: 0.8; stroke-linecap: square"/>
     </g>
     <g id="line2d_44">
      <g>
       <use xlink:href="#mc9874730bf" x="213.589895" y="288.36" style="stroke: #000000; stroke-width: 0.6"/>
      </g>
     </g>
    </g>
    <g id="xtick_23">
     <g id="line2d_45">
      <path d="M 217.395643 288.36 
L 217.395643 38.88 
" clip-path="url(#pc47fa266eb)" style="fill: none; stroke: #b0b0b0; stroke-opacity: 0.6; stroke-width: 0.8; stroke-linecap: square"/>
     </g>
     <g id="line2d_46">
      <g>
       <use xlink:href="#mc9874730bf" x="217.395643" y="288.36" style="stroke: #000000; stroke-width: 0.6"/>
      </g>
     </g>
    </g>
    <g id="xtick_24">
     <g id="line2d_47">
      <path d="M 243.196632 288.36 
L 243.196632 38.88 
" clip-path="url(#pc47fa266eb)" style="fill: none; stroke: #b0b0b0; stroke-opacity: 0.6; stroke-width: 0.8; stroke-linecap: square"/>
     </g>
     <g id="line2d_48">
      <g>
       <use xlink:href="#mc9874730bf" x="243.196632" y="288.36" style="stroke: #000000; stroke-width: 0.6"/>
      </g>
     </g>
    </g>
    <g id="xtick_25">
     <g id="line2d_49">
      <path d="M 256.297821 288.36 
L 256.297821 38.88 
" clip-path="url(#pc47fa266eb)" style="fill: none; stroke: #b0b0b0; stroke-opacity: 0.6; stroke-width: 0.8; stroke-linecap: square"/>
     </g>
     <g id="line2d_50">
      <g>
       <use xlink:href="#mc9874730bf" x="256.297821" y="288.36" style="stroke: #000000; stroke-width: 0.6"/>
      </g>
     </g>
    </g>
    <g id="xtick_26">
     <g id="line2d_51">
      <path d="M 265.593263 288.36 
L 265.593263 38.88 
" clip-path="url(#pc47fa266eb)" style="fill: none; stroke: #b0b0b0; stroke-opacity: 0.6; stroke-width: 0.8; stroke-linecap: square"/>
     </g>
     <g id="line2d_52">
      <g>
       <use xlink:href="#mc9874730bf" x="265.593263" y="288.36" style="stroke: #000000; stroke-width: 0.6"/>
      </g>
     </g>
    </g>
    <g id="xtick_27">
     <g id="line2d_53">
      <path d="M 272.803368 288.36 
L 272.803368 38.88 
" clip-path="url(#pc47fa266eb)" style="fill: none; stroke: #b0b0b0; stroke-opacity: 0.6; stroke-width: 0.8; stroke-linecap: square"/>
     </g>
     <g id="line2d_54">
      <g>
       <use xlink:href="#mc9874730bf" x="272.803368" y="288.36" style="stroke: #000000; stroke-width: 0.6"/>
      </g>
     </g>
    </g>
    <g id="xtick_28">
     <g id="line2d_55">
      <path d="M 278.694453 288.36 
L 278.694453 38.88 
" clip-path="url(#pc47fa266eb)" style="fill: none; stroke: #b0b0b0; stroke-opacity: 0.6; stroke-width: 0.8; stroke-linecap: square"/>
     </g>
     <g id="line2d_56">
      <g>
       <use xlink:href="#mc9874730bf" x="278.694453" y="288.36" style="stroke: #000000; stroke-width: 0.6"/>
      </g>
     </g>
    </g>
    <g id="xtick_29">
     <g id="line2d_57">
      <path d="M 283.675294 288.36 
L 283.675294 38.88 
" clip-path="url(#pc47fa266eb)" style="fill: none; stroke: #b0b0b0; stroke-opacity: 0.6; stroke-width: 0.8; stroke-linecap: square"/>
     </g>
     <g id="line2d_58">
      <g>
       <use xlink:href="#mc9874730bf" x="283.675294" y="288.36" style="stroke: #000000; stroke-width: 0.6"/>
      </g>
     </g>
    </g>
    <g id="xtick_30">
     <g id="line2d_59">
      <path d="M 287.989895 288.36 
L 287.989895 38.88 
" clip-path="url(#pc47fa266eb)" style="fill: none; stroke: #b0b0b0; stroke-opacity: 0.6; stroke-width: 0.8; stroke-linecap: square"/>
     </g>
     <g id="line2d_60">
      <g>
       <use xlink:href="#mc9874730bf" x="287.989895" y="288.36" style="stroke: #000000; stroke-width: 0.6"/>
      </g>
     </g>
    </g>
    <g id="xtick_31">
     <g id="line2d_61">
      <path d="M 291.795643 288.36 
L 291.795643 38.88 
" clip-path="url(#pc47fa266eb)" style="fill: none; stroke: #b0b0b0; stroke-opacity: 0.6; stroke-width: 0.8; stroke-linecap: square"/>
     </g>
     <g id="line2d_62">
      <g>
       <use xlink:href="#mc9874730bf" x="291.795643" y="288.36" style="stroke: #000000; stroke-width: 0.6"/>
      </g>
     </g>
    </g>
    <g id="xtick_32">
     <g id="line2d_63">
      <path d="M 317.596632 288.36 
L 317.596632 38.88 
" clip-path="url(#pc47fa266eb)" style="fill: none; stroke: #b0b0b0; stroke-opacity: 0.6; stroke-width: 0.8; stroke-linecap: square"/>
     </g>
     <g id="line2d_64">
      <g>
       <use xlink:href="#mc9874730bf" x="317.596632" y="288.36" style="stroke: #000000; stroke-width: 0.6"/>
      </g>
     </g>
    </g>
    <g id="xtick_33">
     <g id="line2d_65">
      <path d="M 330.697821 288.36 
L 330.697821 38.88 
" clip-path="url(#pc47fa266eb)" style="fill: none; stroke: #b0b0b0; stroke-opacity: 0.6; stroke-width: 0.8; stroke-linecap: square"/>
     </g>
     <g id="line2d_66">
      <g>
       <use xlink:href="#mc9874730bf" x="330.697821" y="288.36" style="stroke: #000000; stroke-width: 0.6"/>
      </g>
     </g>
    </g>
    <g id="xtick_34">
     <g id="line2d_67">
      <path d="M 339.993263 288.36 
L 339.993263 38.88 
" clip-path="url(#pc47fa266eb)" style="fill: none; stroke: #b0b0b0; stroke-opacity: 0.6; stroke-width: 0.8; stroke-linecap: square"/>
     </g>
     <g id="line2d_68">
      <g>
       <use xlink:href="#mc9874730bf" x="339.993263" y="288.36" style="stroke: #000000; stroke-width: 0.6"/>
      </g>
     </g>
    </g>
    <g id="xtick_35">
     <g id="line2d_69">
      <path d="M 347.203368 288.36 
L 347.203368 38.88 
" clip-path="url(#pc47fa266eb)" style="fill: none; stroke: #b0b0b0; stroke-opacity: 0.6; stroke-width: 0.8; stroke-linecap: square"/>
     </g>
     <g id="line2d_70">
      <g>
       <use xlink:href="#mc9874730bf" x="347.203368" y="288.36" style="stroke: #000000; stroke-width: 0.6"/>
      </g>
     </g>
    </g>
    <g id="xtick_36">
     <g id="line2d_71">
      <path d="M 353.094453 288.36 
L 353.094453 38.88 
" clip-path="url(#pc47fa266eb)" style="fill: none; stroke: #b0b0b0; stroke-opacity: 0.6; stroke-width: 0.8; stroke-linecap: square"/>
     </g>
     <g id="line2d_72">
      <g>
       <use xlink:href="#mc9874730bf" x="353.094453" y="288.36" style="stroke: #000000; stroke-width: 0.6"/>
      </g>
     </g>
    </g>
    <g id="xtick_37">
     <g id="line2d_73">
      <path d="M 358.075294 288.36 
L 358.075294 38.88 
" clip-path="url(#pc47fa266eb)" style="fill: none; stroke: #b0b0b0; stroke-opacity: 0.6; stroke-width: 0.8; stroke-linecap: square"/>
     </g>
     <g id="line2d_74">
      <g>
       <use xlink:href="#mc9874730bf" x="358.075294" y="288.36" style="stroke: #000000; stroke-width: 0.6"/>
      </g>
     </g>
    </g>
    <g id="xtick_38">
     <g id="line2d_75">
      <path d="M 362.389895 288.36 
L 362.389895 38.88 
" clip-path="url(#pc47fa266eb)" style="fill: none; stroke: #b0b0b0; stroke-opacity: 0.6; stroke-width: 0.8; stroke-linecap: square"/>
     </g>
     <g id="line2d_76">
      <g>
       <use xlink:href="#mc9874730bf" x="362.389895" y="288.36" style="stroke: #000000; stroke-width: 0.6"/>
      </g>
     </g>
    </g>
    <g id="xtick_39">
     <g id="line2d_77">
      <path d="M 366.195643 288.36 
L 366.195643 38.88 
" clip-path="url(#pc47fa266eb)" style="fill: none; stroke: #b0b0b0; stroke-opacity: 0.6; stroke-width: 0.8; stroke-linecap: square"/>
     </g>
     <g id="line2d_78">
      <g>
       <use xlink:href="#mc9874730bf" x="366.195643" y="288.36" style="stroke: #000000; stroke-width: 0.6"/>
      </g>
     </g>
    </g>
    <g id="xtick_40">
     <g id="line2d_79">
      <path d="M 391.996632 288.36 
L 391.996632 38.88 
" clip-path="url(#pc47fa266eb)" style="fill: none; stroke: #b0b0b0; stroke-opacity: 0.6; stroke-width: 0.8; stroke-linecap: square"/>
     </g>
     <g id="line2d_80">
      <g>
       <use xlink:href="#mc9874730bf" x="391.996632" y="288.36" style="stroke: #000000; stroke-width: 0.6"/>
      </g>
     </g>
    </g>
    <g id="xtick_41">
     <g id="line2d_81">
      <path d="M 405.097821 288.36 
L 405.097821 38.88 
" clip-path="url(#pc47fa266eb)" style="fill: none; stroke: #b0b0b0; stroke-opacity: 0.6; stroke-width: 0.8; stroke-linecap: square"/>
     </g>
     <g id="line2d_82">
      <g>
       <use xlink:href="#mc9874730bf" x="405.097821" y="288.36" style="stroke: #000000; stroke-width: 0.6"/>
      </g>
     </g>
    </g>
    <g id="xtick_42">
     <g id="line2d_83">
      <path d="M 414.393263 288.36 
L 414.393263 38.88 
" clip-path="url(#pc47fa266eb)" style="fill: none; stroke: #b0b0b0; stroke-opacity: 0.6; stroke-width: 0.8; stroke-linecap: square"/>
     </g>
     <g id="line2d_84">
      <g>
       <use xlink:href="#mc9874730bf" x="414.393263" y="288.36" style="stroke: #000000; stroke-width: 0.6"/>
      </g>
     </g>
    </g>
    <g id="xtick_43">
     <g id="line2d_85">
      <path d="M 421.603368 288.36 
L 421.603368 38.88 
" clip-path="url(#pc47fa266eb)" style="fill: none; stroke: #b0b0b0; stroke-opacity: 0.6; stroke-width: 0.8; stroke-linecap: square"/>
     </g>
     <g id="line2d_86">
      <g>
       <use xlink:href="#mc9874730bf" x="421.603368" y="288.36" style="stroke: #000000; stroke-width: 0.6"/>
      </g>
     </g>
    </g>
    <g id="xtick_44">
     <g id="line2d_87">
      <path d="M 427.494453 288.36 
L 427.494453 38.88 
" clip-path="url(#pc47fa266eb)" style="fill: none; stroke: #b0b0b0; stroke-opacity: 0.6; stroke-width: 0.8; stroke-linecap: square"/>
     </g>
     <g id="line2d_88">
      <g>
       <use xlink:href="#mc9874730bf" x="427.494453" y="288.36" style="stroke: #000000; stroke-width: 0.6"/>
      </g>
     </g>
    </g>
    <g id="xtick_45">
     <g id="line2d_89">
      <path d="M 432.475294 288.36 
L 432.475294 38.88 
" clip-path="url(#pc47fa266eb)" style="fill: none; stroke: #b0b0b0; stroke-opacity: 0.6; stroke-width: 0.8; stroke-linecap: square"/>
     </g>
     <g id="line2d_90">
      <g>
       <use xlink:href="#mc9874730bf" x="432.475294" y="288.36" style="stroke: #000000; stroke-width: 0.6"/>
      </g>
     </g>
    </g>
    <g id="xtick_46">
     <g id="line2d_91">
      <path d="M 436.789895 288.36 
L 436.789895 38.88 
" clip-path="url(#pc47fa266eb)" style="fill: none; stroke: #b0b0b0; stroke-opacity: 0.6; stroke-width: 0.8; stroke-linecap: square"/>
     </g>
     <g id="line2d_92">
      <g>
       <use xlink:href="#mc9874730bf" x="436.789895" y="288.36" style="stroke: #000000; stroke-width: 0.6"/>
      </g>
     </g>
    </g>
    <g id="xtick_47">
     <g id="line2d_93">
      <path d="M 440.595643 288.36 
L 440.595643 38.88 
" clip-path="url(#pc47fa266eb)" style="fill: none; stroke: #b0b0b0; stroke-opacity: 0.6; stroke-width: 0.8; stroke-linecap: square"/>
     </g>
     <g id="line2d_94">
      <g>
       <use xlink:href="#mc9874730bf" x="440.595643" y="288.36" style="stroke: #000000; stroke-width: 0.6"/>
      </g>
     </g>
    </g>
    <g id="xtick_48">
     <g id="line2d_95">
      <path d="M 466.396632 288.36 
L 466.396632 38.88 
" clip-path="url(#pc47fa266eb)" style="fill: none; stroke: #b0b0b0; stroke-opacity: 0.6; stroke-width: 0.8; stroke-linecap: square"/>
     </g>
     <g id="line2d_96">
      <g>
       <use xlink:href="#mc9874730bf" x="466.396632" y="288.36" style="stroke: #000000; stroke-width: 0.6"/>
      </g>
     </g>
    </g>
    <g id="xtick_49">
     <g id="line2d_97">
      <path d="M 479.497821 288.36 
L 479.497821 38.88 
" clip-path="url(#pc47fa266eb)" style="fill: none; stroke: #b0b0b0; stroke-opacity: 0.6; stroke-width: 0.8; stroke-linecap: square"/>
     </g>
     <g id="line2d_98">
      <g>
       <use xlink:href="#mc9874730bf" x="479.497821" y="288.36" style="stroke: #000000; stroke-width: 0.6"/>
      </g>
     </g>
    </g>
    <g id="xtick_50">
     <g id="line2d_99">
      <path d="M 488.793263 288.36 
L 488.793263 38.88 
" clip-path="url(#pc47fa266eb)" style="fill: none; stroke: #b0b0b0; stroke-opacity: 0.6; stroke-width: 0.8; stroke-linecap: square"/>
     </g>
     <g id="line2d_100">
      <g>
       <use xlink:href="#mc9874730bf" x="488.793263" y="288.36" style="stroke: #000000; stroke-width: 0.6"/>
      </g>
     </g>
    </g>
    <g id="xtick_51">
     <g id="line2d_101">
      <path d="M 496.003368 288.36 
L 496.003368 38.88 
" clip-path="url(#pc47fa266eb)" style="fill: none; stroke: #b0b0b0; stroke-opacity: 0.6; stroke-width: 0.8; stroke-linecap: square"/>
     </g>
     <g id="line2d_102">
      <g>
       <use xlink:href="#mc9874730bf" x="496.003368" y="288.36" style="stroke: #000000; stroke-width: 0.6"/>
      </g>
     </g>
    </g>
    <g id="xtick_52">
     <g id="line2d_103">
      <path d="M 501.894453 288.36 
L 501.894453 38.88 
" clip-path="url(#pc47fa266eb)" style="fill: none; stroke: #b0b0b0; stroke-opacity: 0.6; stroke-width: 0.8; stroke-linecap: square"/>
     </g>
     <g id="line2d_104">
      <g>
       <use xlink:href="#mc9874730bf" x="501.894453" y="288.36" style="stroke: #000000; stroke-width: 0.6"/>
      </g>
     </g>
    </g>
    <g id="xtick_53">
     <g id="line2d_105">
      <path d="M 506.875294 288.36 
L 506.875294 38.88 
" clip-path="url(#pc47fa266eb)" style="fill: none; stroke: #b0b0b0; stroke-opacity: 0.6; stroke-width: 0.8; stroke-linecap: square"/>
     </g>
     <g id="line2d_106">
      <g>
       <use xlink:href="#mc9874730bf" x="506.875294" y="288.36" style="stroke: #000000; stroke-width: 0.6"/>
      </g>
     </g>
    </g>
    <g id="xtick_54">
     <g id="line2d_107">
      <path d="M 511.189895 288.36 
L 511.189895 38.88 
" clip-path="url(#pc47fa266eb)" style="fill: none; stroke: #b0b0b0; stroke-opacity: 0.6; stroke-width: 0.8; stroke-linecap: square"/>
     </g>
     <g id="line2d_108">
      <g>
       <use xlink:href="#mc9874730bf" x="511.189895" y="288.36" style="stroke: #000000; stroke-width: 0.6"/>
      </g>
     </g>
    </g>
    <g id="xtick_55">
     <g id="line2d_109">
      <path d="M 514.995643 288.36 
L 514.995643 38.88 
" clip-path="url(#pc47fa266eb)" style="fill: none; stroke: #b0b0b0; stroke-opacity: 0.6; stroke-width: 0.8; stroke-linecap: square"/>
     </g>
     <g id="line2d_110">
      <g>
       <use xlink:href="#mc9874730bf" x="514.995643" y="288.36" style="stroke: #000000; stroke-width: 0.6"/>
      </g>
     </g>
    </g>
    <g id="text_8">
     <!-- Frequency (Hz) -->
     <g transform="translate(249.954375 318.15625) scale(0.12 -0.12)">
      <defs>
       <path id="DejaVuSans-46" d="M 628 4666 
L 3309 4666 
L 3309 4134 
L 1259 4134 
L 1259 2759 
L 3109 2759 
L 3109 2228 
L 1259 2228 
L 1259 0 
L 628 0 
L 628 4666 
z
" transform="scale(0.015625)"/>
       <path id="DejaVuSans-72" d="M 2631 2963 
Q 2534 3019 2420 3045 
Q 2306 3072 2169 3072 
Q 1681 3072 1420 2755 
Q 1159 2438 1159 1844 
L 1159 0 
L 581 0 
L 581 3500 
L 1159 3500 
L 1159 2956 
Q 1341 3275 1631 3429 
Q 1922 3584 2338 3584 
Q 2397 3584 2469 3576 
Q 2541 3569 2628 3553 
L 2631 2963 
z
" transform="scale(0.015625)"/>
       <path id="DejaVuSans-65" d="M 3597 1894 
L 3597 1613 
L 953 1613 
Q 991 1019 1311 708 
Q 1631 397 2203 397 
Q 2534 397 2845 478 
Q 3156 559 3463 722 
L 3463 178 
Q 3153 47 2828 -22 
Q 2503 -91 2169 -91 
Q 1331 -91 842 396 
Q 353 884 353 1716 
Q 353 2575 817 3079 
Q 1281 3584 2069 3584 
Q 2775 3584 3186 3129 
Q 3597 2675 3597 1894 
z
M 3022 2063 
Q 3016 2534 2758 2815 
Q 2500 3097 2075 3097 
Q 1594 3097 1305 2825 
Q 1016 2553 972 2059 
L 3022 2063 
z
" transform="scale(0.015625)"/>
       <path id="DejaVuSans-71" d="M 947 1747 
Q 947 1113 1208 752 
Q 1469 391 1925 391 
Q 2381 391 2643 752 
Q 2906 1113 2906 1747 
Q 2906 2381 2643 2742 
Q 2381 3103 1925 3103 
Q 1469 3103 1208 2742 
Q 947 2381 947 1747 
z
M 2906 525 
Q 2725 213 2448 61 
Q 2172 -91 1784 -91 
Q 1150 -91 751 415 
Q 353 922 353 1747 
Q 353 2572 751 3078 
Q 1150 3584 1784 3584 
Q 2172 3584 2448 3432 
Q 2725 3281 2906 2969 
L 2906 3500 
L 3481 3500 
L 3481 -1331 
L 2906 -1331 
L 2906 525 
z
" transform="scale(0.015625)"/>
       <path id="DejaVuSans-75" d="M 544 1381 
L 544 3500 
L 1119 3500 
L 1119 1403 
Q 1119 906 1312 657 
Q 1506 409 1894 409 
Q 2359 409 2629 706 
Q 2900 1003 2900 1516 
L 2900 3500 
L 3475 3500 
L 3475 0 
L 2900 0 
L 2900 538 
Q 2691 219 2414 64 
Q 2138 -91 1772 -91 
Q 1169 -91 856 284 
Q 544 659 544 1381 
z
M 1991 3584 
L 1991 3584 
z
" transform="scale(0.015625)"/>
       <path id="DejaVuSans-6e" d="M 3513 2113 
L 3513 0 
L 2938 0 
L 2938 2094 
Q 2938 2591 2744 2837 
Q 2550 3084 2163 3084 
Q 1697 3084 1428 2787 
Q 1159 2491 1159 1978 
L 1159 0 
L 581 0 
L 581 3500 
L 1159 3500 
L 1159 2956 
Q 1366 3272 1645 3428 
Q 1925 3584 2291 3584 
Q 2894 3584 3203 3211 
Q 3513 2838 3513 2113 
z
" transform="scale(0.015625)"/>
       <path id="DejaVuSans-63" d="M 3122 3366 
L 3122 2828 
Q 2878 2963 2633 3030 
Q 2388 3097 2138 3097 
Q 1578 3097 1268 2742 
Q 959 2388 959 1747 
Q 959 1106 1268 751 
Q 1578 397 2138 397 
Q 2388 397 2633 464 
Q 2878 531 3122 666 
L 3122 134 
Q 2881 22 2623 -34 
Q 2366 -91 2075 -91 
Q 1284 -91 818 406 
Q 353 903 353 1747 
Q 353 2603 823 3093 
Q 1294 3584 2113 3584 
Q 2378 3584 2631 3529 
Q 2884 3475 3122 3366 
z
" transform="scale(0.015625)"/>
       <path id="DejaVuSans-79" d="M 2059 -325 
Q 1816 -950 1584 -1140 
Q 1353 -1331 966 -1331 
L 506 -1331 
L 506 -850 
L 844 -850 
Q 1081 -850 1212 -737 
Q 1344 -625 1503 -206 
L 1606 56 
L 191 3500 
L 800 3500 
L 1894 763 
L 2988 3500 
L 3597 3500 
L 2059 -325 
z
" transform="scale(0.015625)"/>
       <path id="DejaVuSans-20" transform="scale(0.015625)"/>
       <path id="DejaVuSans-28" d="M 1984 4856 
Q 1566 4138 1362 3434 
Q 1159 2731 1159 2009 
Q 1159 1288 1364 580 
Q 1569 -128 1984 -844 
L 1484 -844 
Q 1016 -109 783 600 
Q 550 1309 550 2009 
Q 550 2706 781 3412 
Q 1013 4119 1484 4856 
L 1984 4856 
z
" transform="scale(0.015625)"/>
       <path id="DejaVuSans-48" d="M 628 4666 
L 1259 4666 
L 1259 2753 
L 3553 2753 
L 3553 4666 
L 4184 4666 
L 4184 0 
L 3553 0 
L 3553 2222 
L 1259 2222 
L 1259 0 
L 628 0 
L 628 4666 
z
" transform="scale(0.015625)"/>
       <path id="DejaVuSans-7a" d="M 353 3500 
L 3084 3500 
L 3084 2975 
L 922 459 
L 3084 459 
L 3084 0 
L 275 0 
L 275 525 
L 2438 3041 
L 353 3041 
L 353 3500 
z
" transform="scale(0.015625)"/>
       <path id="DejaVuSans-29" d="M 513 4856 
L 1013 4856 
Q 1481 4119 1714 3412 
Q 1947 2706 1947 2009 
Q 1947 1309 1714 600 
Q 1481 -109 1013 -844 
L 513 -844 
Q 928 -128 1133 580 
Q 1338 1288 1338 2009 
Q 1338 2731 1133 3434 
Q 928 4138 513 4856 
z
" transform="scale(0.015625)"/>
      </defs>
      <use xlink:href="#DejaVuSans-46"/>
      <use xlink:href="#DejaVuSans-72" transform="translate(50.269531 0)"/>
      <use xlink:href="#DejaVuSans-65" transform="translate(89.132812 0)"/>
      <use xlink:href="#DejaVuSans-71" transform="translate(150.65625 0)"/>
      <use xlink:href="#DejaVuSans-75" transform="translate(214.132812 0)"/>
      <use xlink:href="#DejaVuSans-65" transform="translate(277.511719 0)"/>
      <use xlink:href="#DejaVuSans-6e" transform="translate(339.035156 0)"/>
      <use xlink:href="#DejaVuSans-63" transform="translate(402.414062 0)"/>
      <use xlink:href="#DejaVuSans-79" transform="translate(457.394531 0)"/>
      <use xlink:href="#DejaVuSans-20" transform="translate(516.574219 0)"/>
      <use xlink:href="#DejaVuSans-28" transform="translate(548.361328 0)"/>
      <use xlink:href="#DejaVuSans-48" transform="translate(587.375 0)"/>
      <use xlink:href="#DejaVuSans-7a" transform="translate(662.570312 0)"/>
      <use xlink:href="#DejaVuSans-29" transform="translate(715.060547 0)"/>
     </g>
    </g>
   </g>
   <g id="matplotlib.axis_2">
    <g id="ytick_1">
     <g id="line2d_111">
      <path d="M 72 288.36 
L 518.4 288.36 
" clip-path="url(#pc47fa266eb)" style="fill: none; stroke: #b0b0b0; stroke-opacity: 0.6; stroke-width: 0.8; stroke-linecap: square"/>
     </g>
     <g id="line2d_112">
      <defs>
       <path id="mc4da204cf5" d="M 0 0 
L -3.5 0 
" style="stroke: #000000; stroke-width: 0.8"/>
      </defs>
      <g>
       <use xlink:href="#mc4da204cf5" x="72" y="288.36" style="stroke: #000000; stroke-width: 0.8"/>
      </g>
     </g>
     <g id="text_9">
      <!-- −40 -->
      <g transform="translate(43.895313 292.159219) scale(0.1 -0.1)">
       <defs>
        <path id="DejaVuSans-2212" d="M 678 2272 
L 4684 2272 
L 4684 1741 
L 678 1741 
L 678 2272 
z
" transform="scale(0.015625)"/>
        <path id="DejaVuSans-34" d="M 2419 4116 
L 825 1625 
L 2419 1625 
L 2419 4116 
z
M 2253 4666 
L 3047 4666 
L 3047 1625 
L 3713 1625 
L 3713 1100 
L 3047 1100 
L 3047 0 
L 2419 0 
L 2419 1100 
L 313 1100 
L 313 1709 
L 2253 4666 
z
" transform="scale(0.015625)"/>
       </defs>
       <use xlink:href="#DejaVuSans-2212"/>
       <use xlink:href="#DejaVuSans-34" transform="translate(83.789062 0)"/>
       <use xlink:href="#DejaVuSans-30" transform="translate(147.412109 0)"/>
      </g>
     </g>
    </g>
    <g id="ytick_2">
     <g id="line2d_113">
      <path d="M 72 243 
L 518.4 243 
" clip-path="url(#pc47fa266eb)" style="fill: none; stroke: #b0b0b0; stroke-opacity: 0.6; stroke-width: 0.8; stroke-linecap: square"/>
     </g>
     <g id="line2d_114">
      <g>
       <use xlink:href="#mc4da204cf5" x="72" y="243" style="stroke: #000000; stroke-width: 0.8"/>
      </g>
     </g>
     <g id="text_10">
      <!-- −20 -->
      <g transform="translate(43.895313 246.799219) scale(0.1 -0.1)">
       <defs>
        <path id="DejaVuSans-32" d="M 1228 531 
L 3431 531 
L 3431 0 
L 469 0 
L 469 531 
Q 828 903 1448 1529 
Q 2069 2156 2228 2338 
Q 2531 2678 2651 2914 
Q 2772 3150 2772 3378 
Q 2772 3750 2511 3984 
Q 2250 4219 1831 4219 
Q 1534 4219 1204 4116 
Q 875 4013 500 3803 
L 500 4441 
Q 881 4594 1212 4672 
Q 1544 4750 1819 4750 
Q 2544 4750 2975 4387 
Q 3406 4025 3406 3419 
Q 3406 3131 3298 2873 
Q 3191 2616 2906 2266 
Q 2828 2175 2409 1742 
Q 1991 1309 1228 531 
z
" transform="scale(0.015625)"/>
       </defs>
       <use xlink:href="#DejaVuSans-2212"/>
       <use xlink:href="#DejaVuSans-32" transform="translate(83.789062 0)"/>
       <use xlink:href="#DejaVuSans-30" transform="translate(147.412109 0)"/>
      </g>
     </g>
    </g>
    <g id="ytick_3">
     <g id="line2d_115">
      <path d="M 72 197.64 
L 518.4 197.64 
" clip-path="url(#pc47fa266eb)" style="fill: none; stroke: #b0b0b0; stroke-opacity: 0.6; stroke-width: 0.8; stroke-linecap: square"/>
     </g>
     <g id="line2d_116">
      <g>
       <use xlink:href="#mc4da204cf5" x="72" y="197.64" style="stroke: #000000; stroke-width: 0.8"/>
      </g>
     </g>
     <g id="text_11">
      <!-- 0 -->
      <g transform="translate(58.6375 201.439219) scale(0.1 -0.1)">
       <use xlink:href="#DejaVuSans-30"/>
      </g>
     </g>
    </g>
    <g id="ytick_4">
     <g id="line2d_117">
      <path d="M 72 152.28 
L 518.4 152.28 
" clip-path="url(#pc47fa266eb)" style="fill: none; stroke: #b0b0b0; stroke-opacity: 0.6; stroke-width: 0.8; stroke-linecap: square"/>
     </g>
     <g id="line2d_118">
      <g>
       <use xlink:href="#mc4da204cf5" x="72" y="152.28" style="stroke: #000000; stroke-width: 0.8"/>
      </g>
     </g>
     <g id="text_12">
      <!-- 20 -->
      <g transform="translate(52.275 156.079219) scale(0.1 -0.1)">
       <use xlink:href="#DejaVuSans-32"/>
       <use xlink:href="#DejaVuSans-30" transform="translate(63.623047 0)"/>
      </g>
     </g>
    </g>
    <g id="ytick_5">
     <g id="line2d_119">
      <path d="M 72 106.92 
L 518.4 106.92 
" clip-path="url(#pc47fa266eb)" style="fill: none; stroke: #b0b0b0; stroke-opacity: 0.6; stroke-width: 0.8; stroke-linecap: square"/>
     </g>
     <g id="line2d_120">
      <g>
       <use xlink:href="#mc4da204cf5" x="72" y="106.92" style="stroke: #000000; stroke-width: 0.8"/>
      </g>
     </g>
     <g id="text_13">
      <!-- 40 -->
      <g transform="translate(52.275 110.719219) scale(0.1 -0.1)">
       <use xlink:href="#DejaVuSans-34"/>
       <use xlink:href="#DejaVuSans-30" transform="translate(63.623047 0)"/>
      </g>
     </g>
    </g>
    <g id="ytick_6">
     <g id="line2d_121">
      <path d="M 72 61.56 
L 518.4 61.56 
" clip-path="url(#pc47fa266eb)" style="fill: none; stroke: #b0b0b0; stroke-opacity: 0.6; stroke-width: 0.8; stroke-linecap: square"/>
     </g>
     <g id="line2d_122">
      <g>
       <use xlink:href="#mc4da204cf5" x="72" y="61.56" style="stroke: #000000; stroke-width: 0.8"/>
      </g>
     </g>
     <g id="text_14">
      <!-- 60 -->
      <g transform="translate(52.275 65.359219) scale(0.1 -0.1)">
       <use xlink:href="#DejaVuSans-36"/>
       <use xlink:href="#DejaVuSans-30" transform="translate(63.623047 0)"/>
      </g>
     </g>
    </g>
    <g id="text_15">
     <!-- Gain Magnitude (dB) -->
     <g transform="translate(37.399687 225.624375) rotate(-90) scale(0.12 -0.12)">
      <defs>
       <path id="DejaVuSans-47" d="M 3809 666 
L 3809 1919 
L 2778 1919 
L 2778 2438 
L 4434 2438 
L 4434 434 
Q 4069 175 3628 42 
Q 3188 -91 2688 -91 
Q 1594 -91 976 548 
Q 359 1188 359 2328 
Q 359 3472 976 4111 
Q 1594 4750 2688 4750 
Q 3144 4750 3555 4637 
Q 3966 4525 4313 4306 
L 4313 3634 
Q 3963 3931 3569 4081 
Q 3175 4231 2741 4231 
Q 1884 4231 1454 3753 
Q 1025 3275 1025 2328 
Q 1025 1384 1454 906 
Q 1884 428 2741 428 
Q 3075 428 3337 486 
Q 3600 544 3809 666 
z
" transform="scale(0.015625)"/>
       <path id="DejaVuSans-61" d="M 2194 1759 
Q 1497 1759 1228 1600 
Q 959 1441 959 1056 
Q 959 750 1161 570 
Q 1363 391 1709 391 
Q 2188 391 2477 730 
Q 2766 1069 2766 1631 
L 2766 1759 
L 2194 1759 
z
M 3341 1997 
L 3341 0 
L 2766 0 
L 2766 531 
Q 2569 213 2275 61 
Q 1981 -91 1556 -91 
Q 1019 -91 701 211 
Q 384 513 384 1019 
Q 384 1609 779 1909 
Q 1175 2209 1959 2209 
L 2766 2209 
L 2766 2266 
Q 2766 2663 2505 2880 
Q 2244 3097 1772 3097 
Q 1472 3097 1187 3025 
Q 903 2953 641 2809 
L 641 3341 
Q 956 3463 1253 3523 
Q 1550 3584 1831 3584 
Q 2591 3584 2966 3190 
Q 3341 2797 3341 1997 
z
" transform="scale(0.015625)"/>
       <path id="DejaVuSans-69" d="M 603 3500 
L 1178 3500 
L 1178 0 
L 603 0 
L 603 3500 
z
M 603 4863 
L 1178 4863 
L 1178 4134 
L 603 4134 
L 603 4863 
z
" transform="scale(0.015625)"/>
       <path id="DejaVuSans-4d" d="M 628 4666 
L 1569 4666 
L 2759 1491 
L 3956 4666 
L 4897 4666 
L 4897 0 
L 4281 0 
L 4281 4097 
L 3078 897 
L 2444 897 
L 1241 4097 
L 1241 0 
L 628 0 
L 628 4666 
z
" transform="scale(0.015625)"/>
       <path id="DejaVuSans-67" d="M 2906 1791 
Q 2906 2416 2648 2759 
Q 2391 3103 1925 3103 
Q 1463 3103 1205 2759 
Q 947 2416 947 1791 
Q 947 1169 1205 825 
Q 1463 481 1925 481 
Q 2391 481 2648 825 
Q 2906 1169 2906 1791 
z
M 3481 434 
Q 3481 -459 3084 -895 
Q 2688 -1331 1869 -1331 
Q 1566 -1331 1297 -1286 
Q 1028 -1241 775 -1147 
L 775 -588 
Q 1028 -725 1275 -790 
Q 1522 -856 1778 -856 
Q 2344 -856 2625 -561 
Q 2906 -266 2906 331 
L 2906 616 
Q 2728 306 2450 153 
Q 2172 0 1784 0 
Q 1141 0 747 490 
Q 353 981 353 1791 
Q 353 2603 747 3093 
Q 1141 3584 1784 3584 
Q 2172 3584 2450 3431 
Q 2728 3278 2906 2969 
L 2906 3500 
L 3481 3500 
L 3481 434 
z
" transform="scale(0.015625)"/>
       <path id="DejaVuSans-74" d="M 1172 4494 
L 1172 3500 
L 2356 3500 
L 2356 3053 
L 1172 3053 
L 1172 1153 
Q 1172 725 1289 603 
Q 1406 481 1766 481 
L 2356 481 
L 2356 0 
L 1766 0 
Q 1100 0 847 248 
Q 594 497 594 1153 
L 594 3053 
L 172 3053 
L 172 3500 
L 594 3500 
L 594 4494 
L 1172 4494 
z
" transform="scale(0.015625)"/>
       <path id="DejaVuSans-64" d="M 2906 2969 
L 2906 4863 
L 3481 4863 
L 3481 0 
L 2906 0 
L 2906 525 
Q 2725 213 2448 61 
Q 2172 -91 1784 -91 
Q 1150 -91 751 415 
Q 353 922 353 1747 
Q 353 2572 751 3078 
Q 1150 3584 1784 3584 
Q 2172 3584 2448 3432 
Q 2725 3281 2906 2969 
z
M 947 1747 
Q 947 1113 1208 752 
Q 1469 391 1925 391 
Q 2381 391 2643 752 
Q 2906 1113 2906 1747 
Q 2906 2381 2643 2742 
Q 2381 3103 1925 3103 
Q 1469 3103 1208 2742 
Q 947 2381 947 1747 
z
" transform="scale(0.015625)"/>
       <path id="DejaVuSans-42" d="M 1259 2228 
L 1259 519 
L 2272 519 
Q 2781 519 3026 730 
Q 3272 941 3272 1375 
Q 3272 1813 3026 2020 
Q 2781 2228 2272 2228 
L 1259 2228 
z
M 1259 4147 
L 1259 2741 
L 2194 2741 
Q 2656 2741 2882 2914 
Q 3109 3088 3109 3444 
Q 3109 3797 2882 3972 
Q 2656 4147 2194 4147 
L 1259 4147 
z
M 628 4666 
L 2241 4666 
Q 2963 4666 3353 4366 
Q 3744 4066 3744 3513 
Q 3744 3084 3544 2831 
Q 3344 2578 2956 2516 
Q 3422 2416 3680 2098 
Q 3938 1781 3938 1306 
Q 3938 681 3513 340 
Q 3088 0 2303 0 
L 628 0 
L 628 4666 
z
" transform="scale(0.015625)"/>
      </defs>
      <use xlink:href="#DejaVuSans-47"/>
      <use xlink:href="#DejaVuSans-61" transform="translate(77.490234 0)"/>
      <use xlink:href="#DejaVuSans-69" transform="translate(138.769531 0)"/>
      <use xlink:href="#DejaVuSans-6e" transform="translate(166.552734 0)"/>
      <use xlink:href="#DejaVuSans-20" transform="translate(229.931641 0)"/>
      <use xlink:href="#DejaVuSans-4d" transform="translate(261.71875 0)"/>
      <use xlink:href="#DejaVuSans-61" transform="translate(347.998047 0)"/>
      <use xlink:href="#DejaVuSans-67" transform="translate(409.277344 0)"/>
      <use xlink:href="#DejaVuSans-6e" transform="translate(472.753906 0)"/>
      <use xlink:href="#DejaVuSans-69" transform="translate(536.132812 0)"/>
      <use xlink:href="#DejaVuSans-74" transform="translate(563.916016 0)"/>
      <use xlink:href="#DejaVuSans-75" transform="translate(603.125 0)"/>
      <use xlink:href="#DejaVuSans-64" transform="translate(666.503906 0)"/>
      <use xlink:href="#DejaVuSans-65" transform="translate(729.980469 0)"/>
      <use xlink:href="#DejaVuSans-20" transform="translate(791.503906 0)"/>
      <use xlink:href="#DejaVuSans-28" transform="translate(823.291016 0)"/>
      <use xlink:href="#DejaVuSans-64" transform="translate(862.304688 0)"/>
      <use xlink:href="#DejaVuSans-42" transform="translate(925.78125 0)"/>
      <use xlink:href="#DejaVuSans-29" transform="translate(994.384766 0)"/>
     </g>
    </g>
   </g>
   <g id="line2d_123">
    <path d="M 72 75.214721 
L 518.4 75.214721 
" clip-path="url(#pc47fa266eb)" style="fill: none; stroke-dasharray: 7.4,3.2; stroke-dashoffset: 0; stroke: #808080; stroke-width: 2"/>
   </g>
   <g id="line2d_124">
    <path d="M 72 75.214818 
L 185.612826 75.324221 
L 204.399198 75.560812 
L 216.028858 75.912929 
L 224.974749 76.399322 
L 232.131463 77.002542 
L 238.393587 77.747707 
L 243.761122 78.590761 
L 249.128657 79.657274 
L 254.496192 80.974302 
L 259.863727 82.558396 
L 265.231263 84.412355 
L 270.598798 86.524659 
L 275.966333 88.87178 
L 282.228457 91.864981 
L 289.38517 95.555559 
L 297.436473 99.961278 
L 308.171543 106.110303 
L 323.379559 115.116555 
L 349.322645 130.786666 
L 399.419639 161.064145 
L 413.733066 169.453175 
L 423.573547 174.991049 
L 431.62485 179.281142 
L 438.781563 182.827875 
L 445.043687 185.660112 
L 450.411222 187.844642 
L 455.778758 189.776694 
L 461.146293 191.440844 
L 466.513828 192.835588 
L 471.881363 193.97365 
L 477.248898 194.879433 
L 483.511022 195.685073 
L 489.773146 196.271968 
L 497.824449 196.786469 
L 507.66493 197.166668 
L 518.4 197.39361 
L 518.4 197.39361 
" clip-path="url(#pc47fa266eb)" style="fill: none; stroke: #ff0000; stroke-width: 2.5; stroke-linecap: square"/>
   </g>
   <g id="line2d_125">
    <path d="M 72 102.524314 
L 178.456112 102.634023 
L 197.242485 102.87138 
L 208.872144 103.224602 
L 217.818036 103.712459 
L 224.974749 104.317397 
L 231.236874 105.064543 
L 236.604409 105.909665 
L 241.971944 106.978552 
L 247.339479 108.29818 
L 252.707014 109.884973 
L 258.074549 111.741588 
L 263.442084 113.856369 
L 268.809619 116.205689 
L 275.071743 119.20104 
L 282.228457 122.893527 
L 290.27976 127.300796 
L 301.01483 133.451195 
L 316.222846 142.458779 
L 342.165932 158.132507 
L 399.419639 192.768858 
L 413.733066 201.15822 
L 423.573547 206.696201 
L 431.62485 210.986345 
L 438.781563 214.533105 
L 445.043687 217.365358 
L 450.411222 219.549898 
L 455.778758 221.481956 
L 461.146293 223.146111 
L 466.513828 224.540858 
L 471.881363 225.678923 
L 477.248898 226.584708 
L 483.511022 227.390349 
L 489.773146 227.977245 
L 497.824449 228.491747 
L 507.66493 228.871946 
L 518.4 229.098889 
L 518.4 229.098889 
" clip-path="url(#pc47fa266eb)" style="fill: none; stroke: #0000ff; stroke-width: 2.5; stroke-linecap: square"/>
   </g>
   <g id="line2d_126">
    <path d="M 72 197.64 
L 518.4 197.64 
" clip-path="url(#pc47fa266eb)" style="fill: none; stroke: #000000; stroke-width: 1.5; stroke-linecap: square"/>
   </g>
   <g id="line2d_127">
    <defs>
     <path id="mba00ec8609" d="M 0 5 
C 1.326016 5 2.597899 4.473168 3.535534 3.535534 
C 4.473168 2.597899 5 1.326016 5 0 
C 5 -1.326016 4.473168 -2.597899 3.535534 -3.535534 
C 2.597899 -4.473168 1.326016 -5 0 -5 
C -1.326016 -5 -2.597899 -4.473168 -3.535534 -3.535534 
C -4.473168 -2.597899 -5 -1.326016 -5 0 
C -5 1.326016 -4.473168 2.597899 -3.535534 3.535534 
C -2.597899 4.473168 -1.326016 5 0 5 
z
" style="stroke: #0000ff"/>
    </defs>
    <g clip-path="url(#pc47fa266eb)">
     <use xlink:href="#mba00ec8609" x="407.470942" y="197.64" style="fill: #0000ff; stroke: #0000ff"/>
    </g>
   </g>
   <g id="line2d_128">
    <defs>
     <path id="m12860b02d7" d="M 0 4 
C 1.060812 4 2.078319 3.578535 2.828427 2.828427 
C 3.578535 2.078319 4 1.060812 4 0 
C 4 -1.060812 3.578535 -2.078319 2.828427 -2.828427 
C 2.078319 -3.578535 1.060812 -4 0 -4 
C -1.060812 -4 -2.078319 -3.578535 -2.828427 -2.828427 
C -3.578535 -2.078319 -4 -1.060812 -4 0 
C -4 1.060812 -3.578535 2.078319 -2.828427 2.828427 
C -2.078319 3.578535 -1.060812 4 0 4 
z
" style="stroke: #ff0000"/>
    </defs>
    <g clip-path="url(#pc47fa266eb)">
     <use xlink:href="#m12860b02d7" x="258.074549" y="82.018721" style="fill: #ff0000; stroke: #ff0000"/>
    </g>
   </g>
   <g id="patch_3">
    <path d="M 72 288.36 
L 72 38.88 
" style="fill: none; stroke: #000000; stroke-width: 0.8; stroke-linejoin: miter; stroke-linecap: square"/>
   </g>
   <g id="patch_4">
    <path d="M 518.4 288.36 
L 518.4 38.88 
" style="fill: none; stroke: #000000; stroke-width: 0.8; stroke-linejoin: miter; stroke-linecap: square"/>
   </g>
   <g id="patch_5">
    <path d="M 72 288.36 
L 518.4 288.36 
" style="fill: none; stroke: #000000; stroke-width: 0.8; stroke-linejoin: miter; stroke-linecap: square"/>
   </g>
   <g id="patch_6">
    <path d="M 72 38.88 
L 518.4 38.88 
" style="fill: none; stroke: #000000; stroke-width: 0.8; stroke-linejoin: miter; stroke-linecap: square"/>
   </g>
   <g id="text_16">
    <!-- Unity Gain (0 dB) -->
    <g transform="translate(72 193.292312) scale(0.1 -0.1)">
     <defs>
      <path id="DejaVuSans-55" d="M 556 4666 
L 1191 4666 
L 1191 1831 
Q 1191 1081 1462 751 
Q 1734 422 2344 422 
Q 2950 422 3222 751 
Q 3494 1081 3494 1831 
L 3494 4666 
L 4128 4666 
L 4128 1753 
Q 4128 841 3676 375 
Q 3225 -91 2344 -91 
Q 1459 -91 1007 375 
Q 556 841 556 1753 
L 556 4666 
z
" transform="scale(0.015625)"/>
     </defs>
     <use xlink:href="#DejaVuSans-55"/>
     <use xlink:href="#DejaVuSans-6e" transform="translate(73.193359 0)"/>
     <use xlink:href="#DejaVuSans-69" transform="translate(136.572266 0)"/>
     <use xlink:href="#DejaVuSans-74" transform="translate(164.355469 0)"/>
     <use xlink:href="#DejaVuSans-79" transform="translate(203.564453 0)"/>
     <use xlink:href="#DejaVuSans-20" transform="translate(262.744141 0)"/>
     <use xlink:href="#DejaVuSans-47" transform="translate(294.53125 0)"/>
     <use xlink:href="#DejaVuSans-61" transform="translate(372.021484 0)"/>
     <use xlink:href="#DejaVuSans-69" transform="translate(433.300781 0)"/>
     <use xlink:href="#DejaVuSans-6e" transform="translate(461.083984 0)"/>
     <use xlink:href="#DejaVuSans-20" transform="translate(524.462891 0)"/>
     <use xlink:href="#DejaVuSans-28" transform="translate(556.25 0)"/>
     <use xlink:href="#DejaVuSans-30" transform="translate(595.263672 0)"/>
     <use xlink:href="#DejaVuSans-20" transform="translate(658.886719 0)"/>
     <use xlink:href="#DejaVuSans-64" transform="translate(690.673828 0)"/>
     <use xlink:href="#DejaVuSans-42" transform="translate(754.150391 0)"/>
     <use xlink:href="#DejaVuSans-29" transform="translate(822.753906 0)"/>
    </g>
   </g>
   <g id="patch_7">
    <path d="M 371.79925 216.40214 
Q 382.993096 209.785498 394.186943 203.168855 
L 392.151548 199.725431 
Q 398.844639 199.254073 405.53773 198.782715 
Q 401.897732 204.419208 398.257734 210.055702 
L 396.222338 206.612278 
Q 385.028492 213.228921 373.834645 219.845564 
L 371.79925 216.40214 
z
" style="fill: #0000ff; stroke: #000000; stroke-linecap: round"/>
   </g>
   <g id="text_17">
    <!-- $f_T$ Definition -->
    <g style="fill: #0000ff" transform="translate(297.250942 229.562625) scale(0.12 -0.12)">
     <defs>
      <path id="DejaVuSans-Oblique-66" d="M 3059 4863 
L 2969 4384 
L 2419 4384 
Q 2106 4384 1964 4261 
Q 1822 4138 1753 3809 
L 1691 3500 
L 2638 3500 
L 2553 3053 
L 1606 3053 
L 1013 0 
L 434 0 
L 1031 3053 
L 481 3053 
L 563 3500 
L 1113 3500 
L 1159 3744 
Q 1278 4363 1576 4613 
Q 1875 4863 2516 4863 
L 3059 4863 
z
" transform="scale(0.015625)"/>
      <path id="DejaVuSans-Oblique-54" d="M 378 4666 
L 4325 4666 
L 4225 4134 
L 2559 4134 
L 1759 0 
L 1125 0 
L 1925 4134 
L 275 4134 
L 378 4666 
z
" transform="scale(0.015625)"/>
      <path id="DejaVuSans-44" d="M 1259 4147 
L 1259 519 
L 2022 519 
Q 2988 519 3436 956 
Q 3884 1394 3884 2338 
Q 3884 3275 3436 3711 
Q 2988 4147 2022 4147 
L 1259 4147 
z
M 628 4666 
L 1925 4666 
Q 3281 4666 3915 4102 
Q 4550 3538 4550 2338 
Q 4550 1131 3912 565 
Q 3275 0 1925 0 
L 628 0 
L 628 4666 
z
" transform="scale(0.015625)"/>
      <path id="DejaVuSans-66" d="M 2375 4863 
L 2375 4384 
L 1825 4384 
Q 1516 4384 1395 4259 
Q 1275 4134 1275 3809 
L 1275 3500 
L 2222 3500 
L 2222 3053 
L 1275 3053 
L 1275 0 
L 697 0 
L 697 3053 
L 147 3053 
L 147 3500 
L 697 3500 
L 697 3744 
Q 697 4328 969 4595 
Q 1241 4863 1831 4863 
L 2375 4863 
z
" transform="scale(0.015625)"/>
      <path id="DejaVuSans-6f" d="M 1959 3097 
Q 1497 3097 1228 2736 
Q 959 2375 959 1747 
Q 959 1119 1226 758 
Q 1494 397 1959 397 
Q 2419 397 2687 759 
Q 2956 1122 2956 1747 
Q 2956 2369 2687 2733 
Q 2419 3097 1959 3097 
z
M 1959 3584 
Q 2709 3584 3137 3096 
Q 3566 2609 3566 1747 
Q 3566 888 3137 398 
Q 2709 -91 1959 -91 
Q 1206 -91 779 398 
Q 353 888 353 1747 
Q 353 2609 779 3096 
Q 1206 3584 1959 3584 
z
" transform="scale(0.015625)"/>
     </defs>
     <use xlink:href="#DejaVuSans-Oblique-66" transform="translate(0 0.015625)"/>
     <use xlink:href="#DejaVuSans-Oblique-54" transform="translate(35.205078 -16.390625) scale(0.7)"/>
     <use xlink:href="#DejaVuSans-20" transform="translate(80.698242 0.015625)"/>
     <use xlink:href="#DejaVuSans-44" transform="translate(112.485352 0.015625)"/>
     <use xlink:href="#DejaVuSans-65" transform="translate(189.487305 0.015625)"/>
     <use xlink:href="#DejaVuSans-66" transform="translate(251.010742 0.015625)"/>
     <use xlink:href="#DejaVuSans-69" transform="translate(286.21582 0.015625)"/>
     <use xlink:href="#DejaVuSans-6e" transform="translate(313.999023 0.015625)"/>
     <use xlink:href="#DejaVuSans-69" transform="translate(377.37793 0.015625)"/>
     <use xlink:href="#DejaVuSans-74" transform="translate(405.161133 0.015625)"/>
     <use xlink:href="#DejaVuSans-69" transform="translate(444.370117 0.015625)"/>
     <use xlink:href="#DejaVuSans-6f" transform="translate(472.15332 0.015625)"/>
     <use xlink:href="#DejaVuSans-6e" transform="translate(533.334961 0.015625)"/>
    </g>
    <!-- (3.2 GHz) -->
    <g style="fill: #0000ff" transform="translate(304.630004 243) scale(0.12 -0.12)">
     <defs>
      <path id="DejaVuSans-33" d="M 2597 2516 
Q 3050 2419 3304 2112 
Q 3559 1806 3559 1356 
Q 3559 666 3084 287 
Q 2609 -91 1734 -91 
Q 1441 -91 1130 -33 
Q 819 25 488 141 
L 488 750 
Q 750 597 1062 519 
Q 1375 441 1716 441 
Q 2309 441 2620 675 
Q 2931 909 2931 1356 
Q 2931 1769 2642 2001 
Q 2353 2234 1838 2234 
L 1294 2234 
L 1294 2753 
L 1863 2753 
Q 2328 2753 2575 2939 
Q 2822 3125 2822 3475 
Q 2822 3834 2567 4026 
Q 2313 4219 1838 4219 
Q 1578 4219 1281 4162 
Q 984 4106 628 3988 
L 628 4550 
Q 988 4650 1302 4700 
Q 1616 4750 1894 4750 
Q 2613 4750 3031 4423 
Q 3450 4097 3450 3541 
Q 3450 3153 3228 2886 
Q 3006 2619 2597 2516 
z
" transform="scale(0.015625)"/>
      <path id="DejaVuSans-2e" d="M 684 794 
L 1344 794 
L 1344 0 
L 684 0 
L 684 794 
z
" transform="scale(0.015625)"/>
     </defs>
     <use xlink:href="#DejaVuSans-28"/>
     <use xlink:href="#DejaVuSans-33" transform="translate(39.013672 0)"/>
     <use xlink:href="#DejaVuSans-2e" transform="translate(102.636719 0)"/>
     <use xlink:href="#DejaVuSans-32" transform="translate(134.423828 0)"/>
     <use xlink:href="#DejaVuSans-20" transform="translate(198.046875 0)"/>
     <use xlink:href="#DejaVuSans-47" transform="translate(229.833984 0)"/>
     <use xlink:href="#DejaVuSans-48" transform="translate(307.324219 0)"/>
     <use xlink:href="#DejaVuSans-7a" transform="translate(382.519531 0)"/>
     <use xlink:href="#DejaVuSans-29" transform="translate(435.009766 0)"/>
    </g>
   </g>
   <g id="patch_8">
    <path d="M 197.501319 108.933707 
Q 220.322496 97.957257 243.143673 86.980807 
L 241.409889 83.376089 
Q 248.118734 83.478263 254.82758 83.580437 
Q 250.719411 88.88534 246.611243 94.190243 
L 244.877458 90.585525 
Q 222.056281 101.561975 199.235104 112.538425 
L 197.501319 108.933707 
z
" style="fill: #ff0000; stroke: #000000; stroke-linecap: round"/>
   </g>
   <g id="text_18">
    <!-- Voltage Gain -->
    <g style="fill: #ff0000" transform="translate(129.436511 120.859096) scale(0.1 -0.1)">
     <defs>
      <path id="DejaVuSans-56" d="M 1831 0 
L 50 4666 
L 709 4666 
L 2188 738 
L 3669 4666 
L 4325 4666 
L 2547 0 
L 1831 0 
z
" transform="scale(0.015625)"/>
      <path id="DejaVuSans-6c" d="M 603 4863 
L 1178 4863 
L 1178 0 
L 603 0 
L 603 4863 
z
" transform="scale(0.015625)"/>
     </defs>
     <use xlink:href="#DejaVuSans-56"/>
     <use xlink:href="#DejaVuSans-6f" transform="translate(60.658203 0)"/>
     <use xlink:href="#DejaVuSans-6c" transform="translate(121.839844 0)"/>
     <use xlink:href="#DejaVuSans-74" transform="translate(149.623047 0)"/>
     <use xlink:href="#DejaVuSans-61" transform="translate(188.832031 0)"/>
     <use xlink:href="#DejaVuSans-67" transform="translate(250.111328 0)"/>
     <use xlink:href="#DejaVuSans-65" transform="translate(313.587891 0)"/>
     <use xlink:href="#DejaVuSans-20" transform="translate(375.111328 0)"/>
     <use xlink:href="#DejaVuSans-47" transform="translate(406.898438 0)"/>
     <use xlink:href="#DejaVuSans-61" transform="translate(484.388672 0)"/>
     <use xlink:href="#DejaVuSans-69" transform="translate(545.667969 0)"/>
     <use xlink:href="#DejaVuSans-6e" transform="translate(573.451172 0)"/>
    </g>
    <!-- Bandwidth -->
    <g style="fill: #ff0000" transform="translate(134.659167 132.056908) scale(0.1 -0.1)">
     <defs>
      <path id="DejaVuSans-77" d="M 269 3500 
L 844 3500 
L 1563 769 
L 2278 3500 
L 2956 3500 
L 3675 769 
L 4391 3500 
L 4966 3500 
L 4050 0 
L 3372 0 
L 2619 2869 
L 1863 0 
L 1184 0 
L 269 3500 
z
" transform="scale(0.015625)"/>
      <path id="DejaVuSans-68" d="M 3513 2113 
L 3513 0 
L 2938 0 
L 2938 2094 
Q 2938 2591 2744 2837 
Q 2550 3084 2163 3084 
Q 1697 3084 1428 2787 
Q 1159 2491 1159 1978 
L 1159 0 
L 581 0 
L 581 4863 
L 1159 4863 
L 1159 2956 
Q 1366 3272 1645 3428 
Q 1925 3584 2291 3584 
Q 2894 3584 3203 3211 
Q 3513 2838 3513 2113 
z
" transform="scale(0.015625)"/>
     </defs>
     <use xlink:href="#DejaVuSans-42"/>
     <use xlink:href="#DejaVuSans-61" transform="translate(68.603516 0)"/>
     <use xlink:href="#DejaVuSans-6e" transform="translate(129.882812 0)"/>
     <use xlink:href="#DejaVuSans-64" transform="translate(193.261719 0)"/>
     <use xlink:href="#DejaVuSans-77" transform="translate(256.738281 0)"/>
     <use xlink:href="#DejaVuSans-69" transform="translate(338.525391 0)"/>
     <use xlink:href="#DejaVuSans-64" transform="translate(366.308594 0)"/>
     <use xlink:href="#DejaVuSans-74" transform="translate(429.785156 0)"/>
     <use xlink:href="#DejaVuSans-68" transform="translate(468.994141 0)"/>
    </g>
    <!-- (31.7 MHz) -->
    <g style="fill: #ff0000" transform="translate(133.956042 143.254721) scale(0.1 -0.1)">
     <use xlink:href="#DejaVuSans-28"/>
     <use xlink:href="#DejaVuSans-33" transform="translate(39.013672 0)"/>
     <use xlink:href="#DejaVuSans-31" transform="translate(102.636719 0)"/>
     <use xlink:href="#DejaVuSans-2e" transform="translate(166.259766 0)"/>
     <use xlink:href="#DejaVuSans-37" transform="translate(198.046875 0)"/>
     <use xlink:href="#DejaVuSans-20" transform="translate(261.669922 0)"/>
     <use xlink:href="#DejaVuSans-4d" transform="translate(293.457031 0)"/>
     <use xlink:href="#DejaVuSans-48" transform="translate(379.736328 0)"/>
     <use xlink:href="#DejaVuSans-7a" transform="translate(454.931641 0)"/>
     <use xlink:href="#DejaVuSans-29" transform="translate(507.421875 0)"/>
    </g>
   </g>
   <g id="text_19">
    <!-- Transistor  -->
    <g transform="translate(258.985937 32.88) scale(0.14 -0.14)">
     <defs>
      <path id="DejaVuSans-54" d="M -19 4666 
L 3928 4666 
L 3928 4134 
L 2272 4134 
L 2272 0 
L 1638 0 
L 1638 4134 
L -19 4134 
L -19 4666 
z
" transform="scale(0.015625)"/>
      <path id="DejaVuSans-73" d="M 2834 3397 
L 2834 2853 
Q 2591 2978 2328 3040 
Q 2066 3103 1784 3103 
Q 1356 3103 1142 2972 
Q 928 2841 928 2578 
Q 928 2378 1081 2264 
Q 1234 2150 1697 2047 
L 1894 2003 
Q 2506 1872 2764 1633 
Q 3022 1394 3022 966 
Q 3022 478 2636 193 
Q 2250 -91 1575 -91 
Q 1294 -91 989 -36 
Q 684 19 347 128 
L 347 722 
Q 666 556 975 473 
Q 1284 391 1588 391 
Q 1994 391 2212 530 
Q 2431 669 2431 922 
Q 2431 1156 2273 1281 
Q 2116 1406 1581 1522 
L 1381 1569 
Q 847 1681 609 1914 
Q 372 2147 372 2553 
Q 372 3047 722 3315 
Q 1072 3584 1716 3584 
Q 2034 3584 2315 3537 
Q 2597 3491 2834 3397 
z
" transform="scale(0.015625)"/>
     </defs>
     <use xlink:href="#DejaVuSans-54"/>
     <use xlink:href="#DejaVuSans-72" transform="translate(46.333984 0)"/>
     <use xlink:href="#DejaVuSans-61" transform="translate(87.447266 0)"/>
     <use xlink:href="#DejaVuSans-6e" transform="translate(148.726562 0)"/>
     <use xlink:href="#DejaVuSans-73" transform="translate(212.105469 0)"/>
     <use xlink:href="#DejaVuSans-69" transform="translate(264.205078 0)"/>
     <use xlink:href="#DejaVuSans-73" transform="translate(291.988281 0)"/>
     <use xlink:href="#DejaVuSans-74" transform="translate(344.087891 0)"/>
     <use xlink:href="#DejaVuSans-6f" transform="translate(383.296875 0)"/>
     <use xlink:href="#DejaVuSans-72" transform="translate(444.478516 0)"/>
     <use xlink:href="#DejaVuSans-20" transform="translate(485.591797 0)"/>
    </g>
   </g>
   <g id="legend_1">
    <g id="patch_9">
     <path d="M 77.831 284.195 
L 280.9997 284.195 
Q 282.6657 284.195 282.6657 282.529 
L 282.6657 246.644922 
Q 282.6657 244.978922 280.9997 244.978922 
L 77.831 244.978922 
Q 76.165 244.978922 76.165 246.644922 
L 76.165 282.529 
Q 76.165 284.195 77.831 284.195 
z
" style="fill: #ffffff; opacity: 0.8; stroke: #cccccc; stroke-linejoin: miter"/>
    </g>
    <g id="line2d_129">
     <path d="M 79.497 251.726222 
L 87.827 251.726222 
L 96.157 251.726222 
" style="fill: none; stroke-dasharray: 7.4,3.2; stroke-dashoffset: 0; stroke: #808080; stroke-width: 2"/>
    </g>
    <g id="text_20">
     <!-- Intrinsic DC Voltage Gain ($g_m r_o$) = 54.0 dB -->
     <g transform="translate(102.821 254.641722) scale(0.0833 -0.0833)">
      <defs>
       <path id="DejaVuSans-49" d="M 628 4666 
L 1259 4666 
L 1259 0 
L 628 0 
L 628 4666 
z
" transform="scale(0.015625)"/>
       <path id="DejaVuSans-43" d="M 4122 4306 
L 4122 3641 
Q 3803 3938 3442 4084 
Q 3081 4231 2675 4231 
Q 1875 4231 1450 3742 
Q 1025 3253 1025 2328 
Q 1025 1406 1450 917 
Q 1875 428 2675 428 
Q 3081 428 3442 575 
Q 3803 722 4122 1019 
L 4122 359 
Q 3791 134 3420 21 
Q 3050 -91 2638 -91 
Q 1578 -91 968 557 
Q 359 1206 359 2328 
Q 359 3453 968 4101 
Q 1578 4750 2638 4750 
Q 3056 4750 3426 4639 
Q 3797 4528 4122 4306 
z
" transform="scale(0.015625)"/>
       <path id="DejaVuSans-Oblique-67" d="M 3816 3500 
L 3219 434 
Q 3047 -456 2561 -893 
Q 2075 -1331 1253 -1331 
Q 950 -1331 690 -1286 
Q 431 -1241 206 -1147 
L 313 -588 
Q 525 -725 762 -790 
Q 1000 -856 1269 -856 
Q 1816 -856 2167 -557 
Q 2519 -259 2631 300 
L 2681 563 
Q 2441 288 2122 144 
Q 1803 0 1434 0 
Q 903 0 598 351 
Q 294 703 294 1319 
Q 294 1803 478 2267 
Q 663 2731 997 3091 
Q 1219 3328 1514 3456 
Q 1809 3584 2131 3584 
Q 2484 3584 2746 3420 
Q 3009 3256 3138 2956 
L 3238 3500 
L 3816 3500 
z
M 2950 2216 
Q 2950 2641 2750 2872 
Q 2550 3103 2181 3103 
Q 1953 3103 1747 3012 
Q 1541 2922 1394 2759 
Q 1156 2491 1023 2127 
Q 891 1763 891 1375 
Q 891 944 1092 712 
Q 1294 481 1672 481 
Q 2219 481 2584 976 
Q 2950 1472 2950 2216 
z
" transform="scale(0.015625)"/>
       <path id="DejaVuSans-Oblique-6d" d="M 5747 2113 
L 5338 0 
L 4763 0 
L 5166 2094 
Q 5191 2228 5203 2325 
Q 5216 2422 5216 2491 
Q 5216 2772 5059 2928 
Q 4903 3084 4622 3084 
Q 4203 3084 3875 2770 
Q 3547 2456 3450 1953 
L 3066 0 
L 2491 0 
L 2900 2094 
Q 2925 2209 2937 2307 
Q 2950 2406 2950 2484 
Q 2950 2769 2794 2926 
Q 2638 3084 2363 3084 
Q 1938 3084 1609 2770 
Q 1281 2456 1184 1953 
L 800 0 
L 225 0 
L 909 3500 
L 1484 3500 
L 1375 2956 
Q 1609 3263 1923 3423 
Q 2238 3584 2597 3584 
Q 2978 3584 3223 3384 
Q 3469 3184 3519 2828 
Q 3781 3197 4126 3390 
Q 4472 3584 4856 3584 
Q 5306 3584 5551 3325 
Q 5797 3066 5797 2591 
Q 5797 2488 5784 2364 
Q 5772 2241 5747 2113 
z
" transform="scale(0.015625)"/>
       <path id="DejaVuSans-Oblique-72" d="M 2853 2969 
Q 2766 3016 2653 3041 
Q 2541 3066 2413 3066 
Q 1953 3066 1609 2717 
Q 1266 2369 1153 1784 
L 800 0 
L 225 0 
L 909 3500 
L 1484 3500 
L 1375 2956 
Q 1603 3259 1920 3421 
Q 2238 3584 2597 3584 
Q 2691 3584 2781 3573 
Q 2872 3563 2963 3538 
L 2853 2969 
z
" transform="scale(0.015625)"/>
       <path id="DejaVuSans-Oblique-6f" d="M 1625 -91 
Q 1009 -91 651 289 
Q 294 669 294 1325 
Q 294 1706 417 2101 
Q 541 2497 738 2766 
Q 1047 3184 1428 3384 
Q 1809 3584 2291 3584 
Q 2888 3584 3255 3212 
Q 3622 2841 3622 2241 
Q 3622 1825 3500 1412 
Q 3378 1000 3181 728 
Q 2875 309 2494 109 
Q 2113 -91 1625 -91 
z
M 891 1344 
Q 891 869 1089 633 
Q 1288 397 1691 397 
Q 2269 397 2648 901 
Q 3028 1406 3028 2181 
Q 3028 2634 2825 2865 
Q 2622 3097 2228 3097 
Q 1903 3097 1650 2945 
Q 1397 2794 1197 2484 
Q 1050 2253 970 1956 
Q 891 1659 891 1344 
z
" transform="scale(0.015625)"/>
       <path id="DejaVuSans-3d" d="M 678 2906 
L 4684 2906 
L 4684 2381 
L 678 2381 
L 678 2906 
z
M 678 1631 
L 4684 1631 
L 4684 1100 
L 678 1100 
L 678 1631 
z
" transform="scale(0.015625)"/>
      </defs>
      <use xlink:href="#DejaVuSans-49" transform="translate(0 0.015625)"/>
      <use xlink:href="#DejaVuSans-6e" transform="translate(29.492188 0.015625)"/>
      <use xlink:href="#DejaVuSans-74" transform="translate(92.871094 0.015625)"/>
      <use xlink:href="#DejaVuSans-72" transform="translate(132.080078 0.015625)"/>
      <use xlink:href="#DejaVuSans-69" transform="translate(173.193359 0.015625)"/>
      <use xlink:href="#DejaVuSans-6e" transform="translate(200.976562 0.015625)"/>
      <use xlink:href="#DejaVuSans-73" transform="translate(264.355469 0.015625)"/>
      <use xlink:href="#DejaVuSans-69" transform="translate(316.455078 0.015625)"/>
      <use xlink:href="#DejaVuSans-63" transform="translate(344.238281 0.015625)"/>
      <use xlink:href="#DejaVuSans-20" transform="translate(399.21875 0.015625)"/>
      <use xlink:href="#DejaVuSans-44" transform="translate(431.005859 0.015625)"/>
      <use xlink:href="#DejaVuSans-43" transform="translate(508.007812 0.015625)"/>
      <use xlink:href="#DejaVuSans-20" transform="translate(577.832031 0.015625)"/>
      <use xlink:href="#DejaVuSans-56" transform="translate(609.619141 0.015625)"/>
      <use xlink:href="#DejaVuSans-6f" transform="translate(678.027344 0.015625)"/>
      <use xlink:href="#DejaVuSans-6c" transform="translate(739.208984 0.015625)"/>
      <use xlink:href="#DejaVuSans-74" transform="translate(766.992188 0.015625)"/>
      <use xlink:href="#DejaVuSans-61" transform="translate(806.201172 0.015625)"/>
      <use xlink:href="#DejaVuSans-67" transform="translate(867.480469 0.015625)"/>
      <use xlink:href="#DejaVuSans-65" transform="translate(930.957031 0.015625)"/>
      <use xlink:href="#DejaVuSans-20" transform="translate(992.480469 0.015625)"/>
      <use xlink:href="#DejaVuSans-47" transform="translate(1024.267578 0.015625)"/>
      <use xlink:href="#DejaVuSans-61" transform="translate(1101.757812 0.015625)"/>
      <use xlink:href="#DejaVuSans-69" transform="translate(1163.037109 0.015625)"/>
      <use xlink:href="#DejaVuSans-6e" transform="translate(1190.820312 0.015625)"/>
      <use xlink:href="#DejaVuSans-20" transform="translate(1254.199219 0.015625)"/>
      <use xlink:href="#DejaVuSans-28" transform="translate(1285.986328 0.015625)"/>
      <use xlink:href="#DejaVuSans-Oblique-67" transform="translate(1325 0.015625)"/>
      <use xlink:href="#DejaVuSans-Oblique-6d" transform="translate(1388.476562 -16.390625) scale(0.7)"/>
      <use xlink:href="#DejaVuSans-Oblique-72" transform="translate(1459.399414 0.015625)"/>
      <use xlink:href="#DejaVuSans-Oblique-6f" transform="translate(1500.512695 -16.390625) scale(0.7)"/>
      <use xlink:href="#DejaVuSans-29" transform="translate(1546.074219 0.015625)"/>
      <use xlink:href="#DejaVuSans-20" transform="translate(1585.087891 0.015625)"/>
      <use xlink:href="#DejaVuSans-3d" transform="translate(1616.875 0.015625)"/>
      <use xlink:href="#DejaVuSans-20" transform="translate(1700.664062 0.015625)"/>
      <use xlink:href="#DejaVuSans-35" transform="translate(1732.451172 0.015625)"/>
      <use xlink:href="#DejaVuSans-34" transform="translate(1796.074219 0.015625)"/>
      <use xlink:href="#DejaVuSans-2e" transform="translate(1859.697266 0.015625)"/>
      <use xlink:href="#DejaVuSans-30" transform="translate(1891.484375 0.015625)"/>
      <use xlink:href="#DejaVuSans-20" transform="translate(1955.107422 0.015625)"/>
      <use xlink:href="#DejaVuSans-64" transform="translate(1986.894531 0.015625)"/>
      <use xlink:href="#DejaVuSans-42" transform="translate(2050.371094 0.015625)"/>
     </g>
    </g>
    <g id="line2d_130">
     <path d="M 79.497 263.971322 
L 87.827 263.971322 
L 96.157 263.971322 
" style="fill: none; stroke: #ff0000; stroke-width: 2.5; stroke-linecap: square"/>
    </g>
    <g id="text_21">
     <!-- Open-Circuit Voltage Gain ($v_o/v_i$) -->
     <g transform="translate(102.821 266.886822) scale(0.0833 -0.0833)">
      <defs>
       <path id="DejaVuSans-4f" d="M 2522 4238 
Q 1834 4238 1429 3725 
Q 1025 3213 1025 2328 
Q 1025 1447 1429 934 
Q 1834 422 2522 422 
Q 3209 422 3611 934 
Q 4013 1447 4013 2328 
Q 4013 3213 3611 3725 
Q 3209 4238 2522 4238 
z
M 2522 4750 
Q 3503 4750 4090 4092 
Q 4678 3434 4678 2328 
Q 4678 1225 4090 567 
Q 3503 -91 2522 -91 
Q 1538 -91 948 565 
Q 359 1222 359 2328 
Q 359 3434 948 4092 
Q 1538 4750 2522 4750 
z
" transform="scale(0.015625)"/>
       <path id="DejaVuSans-70" d="M 1159 525 
L 1159 -1331 
L 581 -1331 
L 581 3500 
L 1159 3500 
L 1159 2969 
Q 1341 3281 1617 3432 
Q 1894 3584 2278 3584 
Q 2916 3584 3314 3078 
Q 3713 2572 3713 1747 
Q 3713 922 3314 415 
Q 2916 -91 2278 -91 
Q 1894 -91 1617 61 
Q 1341 213 1159 525 
z
M 3116 1747 
Q 3116 2381 2855 2742 
Q 2594 3103 2138 3103 
Q 1681 3103 1420 2742 
Q 1159 2381 1159 1747 
Q 1159 1113 1420 752 
Q 1681 391 2138 391 
Q 2594 391 2855 752 
Q 3116 1113 3116 1747 
z
" transform="scale(0.015625)"/>
       <path id="DejaVuSans-2d" d="M 313 2009 
L 1997 2009 
L 1997 1497 
L 313 1497 
L 313 2009 
z
" transform="scale(0.015625)"/>
       <path id="DejaVuSans-Oblique-76" d="M 459 3500 
L 1069 3500 
L 1581 525 
L 3256 3500 
L 3866 3500 
L 1875 0 
L 1100 0 
L 459 3500 
z
" transform="scale(0.015625)"/>
       <path id="DejaVuSans-2f" d="M 1625 4666 
L 2156 4666 
L 531 -594 
L 0 -594 
L 1625 4666 
z
" transform="scale(0.015625)"/>
       <path id="DejaVuSans-Oblique-69" d="M 1172 4863 
L 1747 4863 
L 1606 4134 
L 1031 4134 
L 1172 4863 
z
M 909 3500 
L 1484 3500 
L 800 0 
L 225 0 
L 909 3500 
z
" transform="scale(0.015625)"/>
      </defs>
      <use xlink:href="#DejaVuSans-4f" transform="translate(0 0.015625)"/>
      <use xlink:href="#DejaVuSans-70" transform="translate(78.710938 0.015625)"/>
      <use xlink:href="#DejaVuSans-65" transform="translate(142.1875 0.015625)"/>
      <use xlink:href="#DejaVuSans-6e" transform="translate(203.710938 0.015625)"/>
      <use xlink:href="#DejaVuSans-2d" transform="translate(267.089844 0.015625)"/>
      <use xlink:href="#DejaVuSans-43" transform="translate(303.173828 0.015625)"/>
      <use xlink:href="#DejaVuSans-69" transform="translate(372.998047 0.015625)"/>
      <use xlink:href="#DejaVuSans-72" transform="translate(400.78125 0.015625)"/>
      <use xlink:href="#DejaVuSans-63" transform="translate(441.894531 0.015625)"/>
      <use xlink:href="#DejaVuSans-75" transform="translate(496.875 0.015625)"/>
      <use xlink:href="#DejaVuSans-69" transform="translate(560.253906 0.015625)"/>
      <use xlink:href="#DejaVuSans-74" transform="translate(588.037109 0.015625)"/>
      <use xlink:href="#DejaVuSans-20" transform="translate(627.246094 0.015625)"/>
      <use xlink:href="#DejaVuSans-56" transform="translate(659.033203 0.015625)"/>
      <use xlink:href="#DejaVuSans-6f" transform="translate(727.441406 0.015625)"/>
      <use xlink:href="#DejaVuSans-6c" transform="translate(788.623047 0.015625)"/>
      <use xlink:href="#DejaVuSans-74" transform="translate(816.40625 0.015625)"/>
      <use xlink:href="#DejaVuSans-61" transform="translate(855.615234 0.015625)"/>
      <use xlink:href="#DejaVuSans-67" transform="translate(916.894531 0.015625)"/>
      <use xlink:href="#DejaVuSans-65" transform="translate(980.371094 0.015625)"/>
      <use xlink:href="#DejaVuSans-20" transform="translate(1041.894531 0.015625)"/>
      <use xlink:href="#DejaVuSans-47" transform="translate(1073.681641 0.015625)"/>
      <use xlink:href="#DejaVuSans-61" transform="translate(1151.171875 0.015625)"/>
      <use xlink:href="#DejaVuSans-69" transform="translate(1212.451172 0.015625)"/>
      <use xlink:href="#DejaVuSans-6e" transform="translate(1240.234375 0.015625)"/>
      <use xlink:href="#DejaVuSans-20" transform="translate(1303.613281 0.015625)"/>
      <use xlink:href="#DejaVuSans-28" transform="translate(1335.400391 0.015625)"/>
      <use xlink:href="#DejaVuSans-Oblique-76" transform="translate(1374.414062 0.015625)"/>
      <use xlink:href="#DejaVuSans-Oblique-6f" transform="translate(1433.59375 -16.390625) scale(0.7)"/>
      <use xlink:href="#DejaVuSans-2f" transform="translate(1479.155273 0.015625)"/>
      <use xlink:href="#DejaVuSans-Oblique-76" transform="translate(1512.84668 0.015625)"/>
      <use xlink:href="#DejaVuSans-Oblique-69" transform="translate(1572.026367 -16.390625) scale(0.7)"/>
      <use xlink:href="#DejaVuSans-29" transform="translate(1594.208984 0.015625)"/>
     </g>
    </g>
    <g id="line2d_131">
     <path d="M 79.497 276.21512 
L 87.827 276.21512 
L 96.157 276.21512 
" style="fill: none; stroke: #0000ff; stroke-width: 2.5; stroke-linecap: square"/>
    </g>
    <g id="text_22">
     <!-- Short-Circuit Current Gain ($i_o/i_i$) -->
     <g transform="translate(102.821 279.13062) scale(0.0833 -0.0833)">
      <defs>
       <path id="DejaVuSans-53" d="M 3425 4513 
L 3425 3897 
Q 3066 4069 2747 4153 
Q 2428 4238 2131 4238 
Q 1616 4238 1336 4038 
Q 1056 3838 1056 3469 
Q 1056 3159 1242 3001 
Q 1428 2844 1947 2747 
L 2328 2669 
Q 3034 2534 3370 2195 
Q 3706 1856 3706 1288 
Q 3706 609 3251 259 
Q 2797 -91 1919 -91 
Q 1588 -91 1214 -16 
Q 841 59 441 206 
L 441 856 
Q 825 641 1194 531 
Q 1563 422 1919 422 
Q 2459 422 2753 634 
Q 3047 847 3047 1241 
Q 3047 1584 2836 1778 
Q 2625 1972 2144 2069 
L 1759 2144 
Q 1053 2284 737 2584 
Q 422 2884 422 3419 
Q 422 4038 858 4394 
Q 1294 4750 2059 4750 
Q 2388 4750 2728 4690 
Q 3069 4631 3425 4513 
z
" transform="scale(0.015625)"/>
      </defs>
      <use xlink:href="#DejaVuSans-53" transform="translate(0 0.015625)"/>
      <use xlink:href="#DejaVuSans-68" transform="translate(63.476562 0.015625)"/>
      <use xlink:href="#DejaVuSans-6f" transform="translate(126.855469 0.015625)"/>
      <use xlink:href="#DejaVuSans-72" transform="translate(188.037109 0.015625)"/>
      <use xlink:href="#DejaVuSans-74" transform="translate(229.150391 0.015625)"/>
      <use xlink:href="#DejaVuSans-2d" transform="translate(268.359375 0.015625)"/>
      <use xlink:href="#DejaVuSans-43" transform="translate(304.443359 0.015625)"/>
      <use xlink:href="#DejaVuSans-69" transform="translate(374.267578 0.015625)"/>
      <use xlink:href="#DejaVuSans-72" transform="translate(402.050781 0.015625)"/>
      <use xlink:href="#DejaVuSans-63" transform="translate(443.164062 0.015625)"/>
      <use xlink:href="#DejaVuSans-75" transform="translate(498.144531 0.015625)"/>
      <use xlink:href="#DejaVuSans-69" transform="translate(561.523438 0.015625)"/>
      <use xlink:href="#DejaVuSans-74" transform="translate(589.306641 0.015625)"/>
      <use xlink:href="#DejaVuSans-20" transform="translate(628.515625 0.015625)"/>
      <use xlink:href="#DejaVuSans-43" transform="translate(660.302734 0.015625)"/>
      <use xlink:href="#DejaVuSans-75" transform="translate(730.126953 0.015625)"/>
      <use xlink:href="#DejaVuSans-72" transform="translate(793.505859 0.015625)"/>
      <use xlink:href="#DejaVuSans-72" transform="translate(834.619141 0.015625)"/>
      <use xlink:href="#DejaVuSans-65" transform="translate(875.732422 0.015625)"/>
      <use xlink:href="#DejaVuSans-6e" transform="translate(937.255859 0.015625)"/>
      <use xlink:href="#DejaVuSans-74" transform="translate(1000.634766 0.015625)"/>
      <use xlink:href="#DejaVuSans-20" transform="translate(1039.84375 0.015625)"/>
      <use xlink:href="#DejaVuSans-47" transform="translate(1071.630859 0.015625)"/>
      <use xlink:href="#DejaVuSans-61" transform="translate(1149.121094 0.015625)"/>
      <use xlink:href="#DejaVuSans-69" transform="translate(1210.400391 0.015625)"/>
      <use xlink:href="#DejaVuSans-6e" transform="translate(1238.183594 0.015625)"/>
      <use xlink:href="#DejaVuSans-20" transform="translate(1301.5625 0.015625)"/>
      <use xlink:href="#DejaVuSans-28" transform="translate(1333.349609 0.015625)"/>
      <use xlink:href="#DejaVuSans-Oblique-69" transform="translate(1372.363281 0.015625)"/>
      <use xlink:href="#DejaVuSans-Oblique-6f" transform="translate(1400.146484 -16.390625) scale(0.7)"/>
      <use xlink:href="#DejaVuSans-2f" transform="translate(1445.708008 0.015625)"/>
      <use xlink:href="#DejaVuSans-Oblique-69" transform="translate(1479.399414 0.015625)"/>
      <use xlink:href="#DejaVuSans-Oblique-69" transform="translate(1507.182617 -16.390625) scale(0.7)"/>
      <use xlink:href="#DejaVuSans-29" transform="translate(1529.365234 0.015625)"/>
     </g>
    </g>
   </g>
  </g>
 </g>
 <defs>
  <clipPath id="pc47fa266eb">
   <rect x="72" y="38.88" width="446.4" height="249.48"/>
  </clipPath>
 </defs>
</svg>
